<?xml version="1.0" encoding="UTF-8" standalone="no"?>
<svg width="100px" height="100px" viewBox="0 0 100 100" version="1.1" xmlns="http://www.w3.org/2000/svg" xmlns:xlink="http://www.w3.org/1999/xlink">
    <!-- Generator: Sketch 39.1 (31720) - http://www.bohemiancoding.com/sketch -->
    <title>icon-family</title>
    <desc>Created with Sketch.</desc>
    <defs>
        <polygon id="path-1" points="12.5059008 0.512805031 0.307287407 0.512805031 0.307287407 12.6347468 12.5059008 12.6347468 12.5059008 0.512805031"></polygon>
        <polygon id="path-3" points="0.470875275 31.4093082 20.6508292 31.4093082 20.6508292 0.455242667 0.470875275 0.455242667 0.470875275 31.4093082"></polygon>
        <polygon id="path-5" points="16.039061 26.2806169 16.039061 0.599981887 0.00903328068 0.599981887 0.00903328068 26.2806169 16.039061 26.2806169"></polygon>
    </defs>
    <g id="Page-1" stroke="none" stroke-width="1" fill="none" fill-rule="evenodd">
        <rect id="Rectangle-6" x="0" y="0" width="100" height="100"></rect>
        <g transform="translate(22.000000, 26.000000)">
            <path d="M3.22838833,27.4806447 L6.54765994,27.4806447 L6.86113953,31.177969 L7.8531799,43.6051579 C7.89123607,44.0730925 8.21052084,44.3506483 8.30920886,44.3576993 L12.0754792,44.3576993 C12.1741672,44.3506483 12.4921619,44.0724515 12.5295731,43.6045169 L13.8279978,27.4806447 L17.3207797,27.4806447 C17.32981,27.4357743 17.3349702,27.3543665 17.3098144,27.2389854 L15.3076731,18.0713134 C15.20576,17.6072249 14.6362075,17.1501874 14.1576029,17.1501874 L6.39801536,17.1501874 C5.91876569,17.1501874 5.34921325,17.6072249 5.24730013,18.0719544 L3.24580386,27.2396264 C3.22258315,27.3453924 3.22193813,27.4268002 3.22838833,27.4806447 M12.0754792,47.5627308 L8.30856384,47.5627308 C6.41672093,47.5627308 4.80417157,45.9358568 4.63840149,43.8589964 L3.58314919,30.6856762 L3.13486047,30.6856762 C2.18732646,30.6856762 1.31009961,30.2741501 0.728936814,29.5562231 C0.0826270294,28.7600933 -0.148290039,27.6671776 0.0942373848,26.5595187 L2.09573366,17.3918467 C2.51822159,15.4585718 4.40812944,13.9451559 6.39801536,13.9451559 L14.1576029,13.9451559 C16.1468438,13.9451559 18.0361066,15.4585718 18.4585946,17.3912057 L20.4620259,26.5601597 C20.6993932,27.6517934 20.466541,28.73253 19.8221663,29.5267368 C19.224233,30.263253 18.3179803,30.6856762 17.3349702,30.6856762 L16.7996038,30.6856762 L15.7443515,43.8589964 C15.5785814,45.9358568 13.9666771,47.5627308 12.0754792,47.5627308" id="Fill-1" fill="#000000"></path>
            <g id="Group-5" transform="translate(3.870118, 0.128329)">
                <mask id="mask-2" fill="white">
                    <use xlink:href="#path-1"></use>
                </mask>
                <g id="Clip-4"></g>
                <path d="M6.40659412,3.71770828 C4.82178061,3.71770828 3.53238613,4.99907985 3.53238613,6.5740323 C3.53238613,8.14834375 4.82178061,9.42971532 6.40659412,9.42971532 C7.99140763,9.42971532 9.28080211,8.14834375 9.28080211,6.5740323 C9.28080211,4.99907985 7.99140763,3.71770828 6.40659412,3.71770828 M6.40659412,12.6347468 C3.04346117,12.6347468 0.307287407,9.91623909 0.307287407,6.5740323 C0.307287407,3.23182551 3.04346117,0.51267683 6.40659412,0.51267683 C9.76972707,0.51267683 12.5059008,3.23182551 12.5059008,6.5740323 C12.5059008,9.91623909 9.76972707,12.6347468 6.40659412,12.6347468" id="Fill-3" fill="#000000" mask="url(#mask-2)"></path>
            </g>
            <g id="Group-8" transform="translate(18.705573, 16.153487)">
                <mask id="mask-4" fill="white">
                    <use xlink:href="#path-3"></use>
                </mask>
                <g id="Clip-7"></g>
                <path d="M3.70996007,20.2405428 C3.72157043,20.2405428 3.7370509,20.2418248 3.75511145,20.2418248 L7.92000395,20.2418248 L8.49407152,27.6467295 C8.52051733,27.9774887 8.72305353,28.1826107 8.79981088,28.208251 L12.2048701,28.2044049 C12.2500215,28.1826107 12.4525577,27.9774887 12.4790035,27.6460885 L13.0646814,20.2418248 L17.3740584,20.2418248 C17.394699,20.2418248 17.4114695,20.2405428 17.4256599,20.2386198 C17.4250149,20.2347737 17.4243699,20.2302867 17.4237249,20.2264407 L12.7428166,4.38717525 C12.6667043,4.03398078 12.2274458,3.66027411 11.8881654,3.66027411 L9.18940281,3.66027411 C8.82109653,3.66027411 8.36893769,4.02500669 8.29218034,4.38332921 L8.26444449,4.49742833 L3.69705968,20.2155435 C3.69641466,20.2257996 3.69576964,20.2341327 3.69512462,20.2418248 C3.69899473,20.2411838 3.70415489,20.2405428 3.70996007,20.2405428 M12.2048701,31.4094364 L8.76820491,31.4094364 C6.96924484,31.4094364 5.43667793,29.8678163 5.27929311,27.8999269 L4.92646731,23.4468563 L3.75511145,23.4468563 C2.72953006,23.4468563 1.79038131,23.016741 1.17825757,22.2674047 C0.566133831,21.5180683 0.336506801,20.5161755 0.547428258,19.5187697 L0.576454147,19.4040296 L5.15093418,3.65771009 C5.56761694,1.85648242 7.3272308,0.455242667 9.18940281,0.455242667 L11.8881654,0.455242667 C13.7193765,0.455242667 15.4589947,1.85199537 15.8808376,3.648736 L20.5694862,19.5097956 C20.7875029,20.5084834 20.562391,21.5116583 19.9528473,22.2635586 C19.3420136,23.015459 18.4022198,23.4468563 17.3740584,23.4468563 L16.0478978,23.4468563 L15.6937819,27.8992859 C15.5363971,29.8678163 14.0038302,31.4094364 12.2048701,31.4094364" id="Fill-6" fill="#000000" mask="url(#mask-4)"></path>
            </g>
            <path d="M29.2657069,7.56310501 C27.89762,7.56310501 26.7843159,8.66948186 26.7843159,10.0290562 C26.7843159,11.3879895 27.89762,12.4937254 29.2657069,12.4937254 C30.6331487,12.4937254 31.7464528,11.3879895 31.7464528,10.0290562 C31.7464528,8.66948186 30.6331487,7.56310501 29.2657069,7.56310501 M29.2657069,15.6987568 C26.1193006,15.6987568 23.5592172,13.1558849 23.5592172,10.0290562 C23.5592172,6.90222752 26.1193006,4.35807356 29.2657069,4.35807356 C32.4121132,4.35807356 34.9715516,6.90222752 34.9715516,10.0290562 C34.9715516,13.1558849 32.4121132,15.6987568 29.2657069,15.6987568" id="Fill-9" fill="#000000"></path>
            <g id="Group-13" transform="translate(39.346204, 21.281537)">
                <mask id="mask-6" fill="white">
                    <use xlink:href="#path-5"></use>
                </mask>
                <g id="Clip-12"></g>
                <path d="M6.70891487,23.0755854 L9.21481659,23.0755854 C9.2380373,23.037125 9.26319307,22.9787935 9.26899824,22.9057187 L10.2610386,10.604167 L12.7385595,10.604167 L11.3311264,4.15628478 C11.2982304,4.00693031 11.0479627,3.80565434 10.8918679,3.80565434 L5.15699737,3.80565434 C5.00219263,3.80565434 4.75192497,4.0056483 4.71902896,4.15692579 L3.31159588,10.604167 L5.65559763,10.604167 L5.92005573,13.7194576 L6.65344318,22.9050777 C6.65924835,22.9781525 6.68504914,23.037125 6.70891487,23.0755854 M9.35414085,26.2806169 L6.57088065,26.2806169 C4.95446117,26.2806169 3.57798903,24.9088634 3.43866477,23.1589162 L2.69108688,13.8085575 C1.8848122,13.7931733 1.13981439,13.4342098 0.641214129,12.8194848 C0.0839170689,12.132326 -0.117974111,11.1964569 0.0877871874,10.2528956 L1.56681746,3.47681811 C1.91964326,1.86340528 3.49671654,0.599981887 5.15699737,0.599981887 L10.8918679,0.599981887 C12.5508587,0.599981887 14.127932,1.86276428 14.4826928,3.47425409 L15.9623681,10.2528956 C16.1649043,11.1836367 15.9630132,12.1111728 15.4063611,12.7964086 C14.8845401,13.4399789 14.094391,13.8091985 13.2397398,13.8091985 L13.2326446,13.8091985 L13.2178091,13.9848342 L12.4837767,23.1589162 C12.3450974,24.9088634 10.9699153,26.2806169 9.35414085,26.2806169" id="Fill-11" fill="#000000" mask="url(#mask-6)"></path>
            </g>
            <path d="M47.3690891,14.586034 C46.4305853,14.586034 45.6662369,15.3456265 45.6662369,16.2789316 C45.6662369,17.2115958 46.4305853,17.9705472 47.3690891,17.9705472 C48.3088828,17.9705472 49.0732312,17.2115958 49.0732312,16.2789316 C49.0732312,15.3456265 48.3088828,14.586034 47.3690891,14.586034 M47.3690891,21.1755787 C44.6516209,21.1755787 42.4411382,18.9794911 42.4411382,16.2789316 C42.4411382,13.5783721 44.6516209,11.3810026 47.3690891,11.3810026 C50.0872023,11.3810026 52.29833,13.5783721 52.29833,16.2789316 C52.29833,18.9794911 50.0872023,21.1755787 47.3690891,21.1755787" id="Fill-14" fill="#000000"></path>
        </g>
    </g>
</svg>