<?xml version="1.0" encoding="UTF-8"?>
<svg width="100px" height="100px" viewBox="0 0 100 100" version="1.1" xmlns="http://www.w3.org/2000/svg" xmlns:xlink="http://www.w3.org/1999/xlink">
    <!-- Generator: Sketch 43.1 (39012) - http://www.bohemiancoding.com/sketch -->
    <title>icon-consumerprotection</title>
    <desc>Created with Sketch.</desc>
    <defs>
        <polygon id="path-1" points="63.354 0.30859987 63.354 22 0.000215693914 22 0.000215693914 0.30859987"></polygon>
        <polygon id="path-3" points="0.8538 0.791 36.9868 0.791 36.9868 36.9229 0.8538 36.9229"></polygon>
    </defs>
    <g id="Page-1" stroke="none" stroke-width="1" fill="none" fill-rule="evenodd">
        <g id="icon-consumerprotection">
            <g id="Group-4" fill-rule="nonzero" fill-opacity="0.01" fill="#FFFFFF">
                <g id="Group-2">
                    <g id="Group">
                        <rect id="Rectangle" style="mix-blend-mode: overlay;" x="0" y="0" width="100" height="100"></rect>
                    </g>
                </g>
            </g>
            <g id="Page-1" transform="translate(22.000000, 22.000000)">
                <g id="Group-3" transform="translate(0.000000, 38.209300)">
                    <g id="Fill-1-Clipped">
                        <mask id="mask-2" fill="white">
                            <use xlink:href="#path-1"></use>
                        </mask>
                        <g id="path-1"></g>
                        <path d="M63.2289,7.6407 C63.1169,8.0127 62.9319,8.3717 62.6739,8.6977 C62.4819,8.9387 62.2479,9.1697 61.9899,9.3297 C61.2689,9.7757 60.5509,10.2237 59.8299,10.6677 C54.9069,13.7207 49.9609,16.7287 44.5649,18.9177 C41.3569,20.2227 38.1339,21.5537 34.6769,21.9397 C33.7269,22.0477 32.7329,22.0037 31.7559,21.8657 C31.1269,21.7747 30.5049,21.6467 29.9059,21.4907 C25.0799,20.2397 20.2739,18.8947 15.5069,17.4337 C13.6089,16.8517 11.8439,16.8247 10.0289,17.5247 C8.8889,17.9647 7.7499,18.4027 6.6089,18.8487 C4.4259,19.7017 2.6239,18.7787 2.0809,16.5137 C1.3239,13.3537 -2.0271,6.3087 1.7989,4.0517 C2.2329,3.7967 2.7539,3.6007 3.3599,3.4637 C4.1379,3.2887 4.9159,3.1107 5.6929,2.9307 C10.3819,2.9477 15.1679,0.5797 19.9979,0.3307 C22.3779,0.2077 24.7499,0.6107 27.0419,1.2267 C27.5789,1.3717 28.0999,1.5637 28.6199,1.7597 C30.0629,2.7217 31.7559,3.0517 33.5289,3.1867 C35.0849,3.3047 36.6559,3.3047 38.1989,3.5237 C39.0419,3.6437 39.9229,3.9797 40.6369,4.4487 C42.0139,5.3547 42.2229,7.0287 41.2389,8.3547 C40.5379,9.2957 39.6079,9.8437 38.5789,10.1617 C38.1069,10.3097 37.6129,10.4087 37.1119,10.4757 C34.7619,10.7877 32.3979,10.8377 30.0719,10.4757 C29.6249,10.6007 29.1919,10.7547 28.7689,10.9497 C28.5549,11.0477 28.4659,11.2537 28.4859,11.4517 C28.5059,11.6557 28.6439,11.8497 28.8839,11.9007 C29.2299,11.9737 29.5769,12.0437 29.9239,12.1077 C32.2289,12.5347 34.5749,12.7637 36.9189,12.7507 C39.4829,12.7387 42.8099,11.5147 45.0229,10.3467 C47.3399,9.1237 54.7359,5.7437 55.8939,5.2657 C56.9799,4.8177 58.0679,4.3717 59.1589,3.9327 C60.5089,3.3927 61.9349,3.8477 62.7659,4.9987 C63.3379,5.7917 63.4939,6.7557 63.2289,7.6407" id="Fill-1" fill="#333332" fill-rule="nonzero" mask="url(#mask-2)"></path>
                    </g>
                </g>
                <path d="M57.3216,41.1488 C57.3186,41.1528 57.3136,41.1578 57.3096,41.1628 C57.2066,41.2778 57.0166,41.3038 56.8806,41.3538 C56.7356,41.4058 56.5936,41.4658 56.4516,41.5208 C56.1126,41.6498 55.7756,41.7778 55.4376,41.9058 C54.8216,42.1398 54.2056,42.3658 53.5956,42.6168 C53.5926,42.6178 53.5886,42.6198 53.5856,42.6208 C52.4896,43.0728 45.4986,46.2688 43.3076,47.4238 C43.1006,47.5338 42.8836,47.6428 42.6586,47.7528 C42.4636,47.8468 42.2766,47.6158 42.4066,47.4418 C42.4086,47.4398 42.4106,47.4368 42.4126,47.4348 C43.1536,46.4358 43.4506,45.2608 43.2506,44.1238 C43.2146,43.9168 43.1596,43.7128 43.0926,43.5168 C43.6766,43.2668 44.2956,43.0068 44.9186,42.7468 C47.4266,41.6998 49.9936,40.6648 50.6246,40.4348 C51.6676,40.0538 52.7136,39.6748 53.7586,39.3038 C55.0536,38.8478 56.3836,39.3318 57.1256,40.4508 C57.2646,40.6648 57.5326,40.8808 57.3216,41.1488" id="Fill-4" fill="#333332" fill-rule="nonzero"></path>
                <g id="Group-8" transform="translate(19.000000, 0.209300)">
                    <g id="Fill-6-Clipped">
                        <mask id="mask-4" fill="white">
                            <use xlink:href="#path-3"></use>
                        </mask>
                        <g id="path-3"></g>
                        <path d="M23.1068,33.5059 C22.9928,33.1099 22.8458,32.7229 22.6848,32.3369 C22.0848,30.8909 22.0958,29.4289 22.6228,27.9629 C22.6338,27.9309 22.6458,27.9009 22.6598,27.8709 C25.0248,26.8859 26.9228,24.9969 27.9188,22.6369 C28.1188,22.5149 28.3438,22.4289 28.6018,22.3729 C29.0158,22.2799 29.4388,22.2179 29.8618,22.1909 C30.8578,22.1249 31.8018,22.3309 32.7148,22.7409 C32.9948,22.8659 33.2778,22.9729 33.5648,23.0589 C32.1188,28.0919 28.1418,32.0649 23.1068,33.5059 M4.2728,23.0489 C4.6698,22.9349 5.0608,22.7869 5.4498,22.6249 C6.8948,22.0249 8.3568,22.0359 9.8238,22.5629 C9.8538,22.5729 9.8828,22.5849 9.9108,22.5969 C10.8958,24.9629 12.7868,26.8599 15.1468,27.8549 C15.2698,28.0559 15.3558,28.2829 15.4138,28.5429 C15.5048,28.9559 15.5678,29.3799 15.5948,29.8009 C15.6608,30.7979 15.4558,31.7419 15.0448,32.6549 C14.9188,32.9339 14.8128,33.2169 14.7268,33.5039 C9.6918,32.0599 5.7158,28.0839 4.2728,23.0489 M14.7358,4.2079 C14.8498,4.6069 14.9988,4.9989 15.1608,5.3889 C15.7608,6.8349 15.7498,8.2969 15.2228,9.7629 C15.2128,9.7899 15.2038,9.8169 15.1928,9.8419 C12.8198,10.8269 10.9168,12.7229 9.9208,15.0919 C9.7218,15.2119 9.4998,15.2969 9.2438,15.3529 C8.8298,15.4449 8.4068,15.5079 7.9848,15.5349 C6.9878,15.6009 6.0438,15.3949 5.1308,14.9849 C4.8488,14.8589 4.5628,14.7509 4.2728,14.6649 C5.7168,9.6269 9.6968,5.6499 14.7358,4.2079 M10.7918,18.8579 C10.7918,14.3739 14.4388,10.7259 18.9228,10.7259 C23.4068,10.7259 27.0548,14.3739 27.0548,18.8579 C27.0548,23.3409 23.4068,26.9889 18.9228,26.9889 C14.4388,26.9889 10.7918,23.3409 10.7918,18.8579 M33.5718,14.6769 C33.1738,14.7919 32.7848,14.9399 32.3968,15.1009 C30.9518,15.7009 29.4888,15.6899 28.0228,15.1629 C27.9948,15.1529 27.9668,15.1419 27.9398,15.1309 C26.9558,12.7569 25.0598,10.8529 22.6918,9.8579 C22.5728,9.6589 22.4888,9.4369 22.4318,9.1829 C22.3398,8.7699 22.2778,8.3459 22.2508,7.9239 C22.1848,6.9279 22.3908,5.9839 22.8008,5.0709 C22.9268,4.7889 23.0358,4.5029 23.1218,4.2129 C28.1568,5.6589 32.1318,9.6389 33.5718,14.6769 M31.6958,6.0819 C28.2828,2.6699 23.7468,0.7909 18.9198,0.7909 C14.0948,0.7909 9.5578,2.6699 6.1458,6.0819 C2.7338,9.4939 0.8538,14.0309 0.8538,18.8569 C0.8538,23.6829 2.7338,28.2189 6.1458,31.6319 C9.5578,35.0439 14.0948,36.9229 18.9198,36.9229 C23.7468,36.9229 28.2828,35.0439 31.6958,31.6319 C35.1078,28.2189 36.9868,23.6829 36.9868,18.8569 C36.9868,14.0309 35.1078,9.4939 31.6958,6.0819" id="Fill-6" fill="#333332" fill-rule="nonzero" mask="url(#mask-4)"></path>
                    </g>
                </g>
            </g>
        </g>
    </g>
</svg>