<?xml version="1.0" encoding="UTF-8"?>
<svg width="100px" height="100px" viewBox="0 0 100 100" version="1.1" xmlns="http://www.w3.org/2000/svg" xmlns:xlink="http://www.w3.org/1999/xlink">
    <!-- Generator: Sketch 43.1 (39012) - http://www.bohemiancoding.com/sketch -->
    <title>icon-socialsecurity</title>
    <desc>Created with Sketch.</desc>
    <defs>
        <polygon id="path-1" points="0 63.9997 0 0.617 54.684 0.617 54.684 63.9997 -1.98612285e-15 63.9997"></polygon>
    </defs>
    <g id="Page-1" stroke="none" stroke-width="1" fill="none" fill-rule="evenodd">
        <g id="icon-socialsecurity">
            <g id="Group-2" fill-rule="nonzero" fill-opacity="0.01" fill="#FFFFFF">
                <g id="Group">
                    <rect id="Rectangle" style="mix-blend-mode: overlay;" x="0" y="0" width="100" height="100"></rect>
                </g>
            </g>
            <g id="Page-1" transform="translate(24.000000, 18.000000)">
                <g id="Group-3" transform="translate(0.000000, 0.383000)">
                    <g id="Fill-1-Clipped">
                        <mask id="mask-2" fill="white">
                            <use xlink:href="#path-1"></use>
                        </mask>
                        <g id="path-1"></g>
                        <path d="M37.4593,56.6637 C30.0423,58.5667 22.2113,58.2327 14.0863,55.7027 C14.4173,54.8117 15.1303,52.7067 15.1873,52.5307 C15.1893,52.5237 17.0453,45.5267 17.1593,45.0547 C17.1643,45.0297 17.1673,45.0157 17.1673,45.0157 C17.3043,44.3487 17.4293,43.6897 17.5413,43.0377 L38.1823,43.0377 C38.2913,43.6957 38.4133,44.3547 38.5473,45.0157 C38.6133,45.3487 38.6853,45.6817 38.7583,46.0147 C38.7603,46.0167 38.7603,46.0207 38.7613,46.0247 C39.4823,48.9487 41.3783,54.0047 41.5113,54.3577 C41.5143,54.3637 41.5163,54.3697 41.5173,54.3727 C41.6473,54.6527 41.7823,54.9297 41.9203,55.2037 C40.5893,55.7357 39.1053,56.2427 37.4593,56.6637 M18.3213,29.9657 C18.2263,28.3047 19.2983,26.8077 20.8973,26.3497 C26.1633,24.8417 32.2213,24.6617 37.3693,24.9357 C37.2303,26.9907 37.0223,31.6107 37.4523,37.0477 L18.2703,37.0477 C18.4463,34.5477 18.4493,32.1867 18.3213,29.9657 M53.9083,51.1487 C52.7833,49.8817 50.8463,49.7637 49.5763,50.8847 C49.5223,50.9297 47.9623,52.2557 45.1223,53.7367 C43.4713,50.5217 42.4193,46.7697 41.7613,43.0377 L47.7483,43.0377 L47.7483,41.0597 C47.7483,38.8437 45.9533,37.0477 43.7383,37.0477 L41.0003,37.0477 C40.5633,31.7387 40.7543,27.1667 40.8793,25.1977 C41.5093,25.2577 42.1383,25.3097 42.7653,25.3957 C43.3603,25.4777 44.0223,25.5337 44.5343,25.8757 C44.8813,26.1067 45.0173,26.4997 45.1933,26.8567 C46.4003,29.2947 50.0723,28.9537 51.2093,26.6537 C51.8833,25.2907 51.5103,23.4787 50.3513,22.4917 C49.5453,21.8057 48.3663,21.7627 47.3633,21.5967 C46.8213,21.5057 46.2063,21.4097 45.5283,21.3117 C40.5703,20.5977 32.2543,19.8327 24.3623,21.0987 C20.5373,21.7127 16.8173,19.5437 15.5053,15.8987 C15.4883,15.8567 15.4733,15.8157 15.4593,15.7727 C13.0413,9.1297 9.7453,4.6507 7.8753,2.4557 C7.8733,2.4547 7.8733,2.4537 7.8723,2.4517 C7.7253,2.2327 7.5643,2.0217 7.3933,1.8157 C7.2153,1.6017 7.0123,1.4157 6.7933,1.2597 C5.7493,0.5057 4.3043,0.3947 3.1423,1.0347 C3.0253,1.0997 2.9123,1.1697 2.8063,1.2457 C1.5953,2.1017 1.0593,3.6357 1.5053,5.0817 C1.9863,6.6377 3.5293,7.6627 5.1633,7.4597 C5.4553,7.4227 5.6373,7.4827 5.7893,7.6427 C5.8603,7.7397 5.9303,7.8397 6.0033,7.9407 C6.2683,8.3187 6.5433,8.7267 6.8273,9.1637 C8.2113,11.3077 9.7503,14.1537 11.0043,17.6657 C13.5243,24.7207 14.2203,32.2767 13.1143,40.2467 C13.1113,40.2547 13.1113,40.2637 13.1103,40.2707 C12.4883,44.7437 11.2923,49.3477 9.5303,54.0687 C7.8553,53.3867 6.1683,52.6247 4.4703,51.7607 C2.9573,50.9907 1.1053,51.5927 0.3343,53.1067 C-0.4347,54.6197 0.1673,56.4717 1.6813,57.2407 C11.7313,62.3557 20.5903,63.9997 27.8223,63.9997 C32.3323,63.9997 36.2093,63.3607 39.3503,62.5257 C48.3473,60.1347 53.4393,55.6777 53.6503,55.4907 C54.9213,54.3617 55.0363,52.4187 53.9083,51.1487" id="Fill-1" fill="#333332" fill-rule="nonzero" mask="url(#mask-2)"></path>
                    </g>
                </g>
                <path d="M20.0755,35.2196 C19.9165,32.6226 21.5125,31.0656 23.2375,31.2816 C25.6645,31.5856 28.1045,31.6056 30.5375,31.2276 C31.3985,31.0946 32.2635,30.9356 33.1275,30.9136 C34.6145,30.8746 35.8865,32.6806 35.7715,34.5626 C35.7445,35.0076 35.6555,35.2796 35.2225,35.2776 C30.2645,35.2616 25.3065,35.2666 20.3485,35.2646 C20.2555,35.2646 20.1625,35.2346 20.0755,35.2196" id="Fill-4" fill="#333332" fill-rule="nonzero"></path>
            </g>
        </g>
    </g>
</svg>