<?xml version="1.0" encoding="UTF-8" standalone="no"?>
<svg width="100px" height="100px" viewBox="0 0 100 100" version="1.1" xmlns="http://www.w3.org/2000/svg" xmlns:xlink="http://www.w3.org/1999/xlink">
    <!-- Generator: Sketch 39.1 (31720) - http://www.bohemiancoding.com/sketch -->
    <title>icon-bankruptcy</title>
    <desc>Created with Sketch.</desc>
    <defs></defs>
    <g id="Page-1" stroke="none" stroke-width="1" fill="none" fill-rule="evenodd">
        <g id="Group-18" transform="translate(29.000000, 26.000000)" fill="#000000">
            <path d="M3.381,43.5513 L9.455,43.5513 L9.455,14.3973 L3.381,14.3973 L3.381,43.5513 Z M10.955,11.3973 L1.881,11.3973 C1.052,11.3973 0.381,12.0683 0.381,12.8973 L0.381,45.0513 C0.381,45.8793 1.052,46.5513 1.881,46.5513 L10.955,46.5513 C11.783,46.5513 12.455,45.8793 12.455,45.0513 L12.455,12.8973 C12.455,12.0683 11.783,11.3973 10.955,11.3973 L10.955,11.3973 Z" id="Fill-24"></path>
            <path d="M18.672,43.5513 L24.746,43.5513 L24.746,24.1923 L18.672,24.1923 L18.672,43.5513 Z M26.246,21.1913 L17.172,21.1913 C16.344,21.1913 15.672,21.8633 15.672,22.6913 L15.672,45.0513 C15.672,45.8793 16.344,46.5513 17.172,46.5513 L26.246,46.5513 C27.074,46.5513 27.746,45.8793 27.746,45.0513 L27.746,22.6913 C27.746,21.8633 27.074,21.1913 26.246,21.1913 L26.246,21.1913 Z" id="Fill-25"></path>
            <path d="M33.962,43.5513 L40.037,43.5513 L40.037,33.9873 L33.962,33.9873 L33.962,43.5513 Z M41.537,30.9863 L32.462,30.9863 C31.634,30.9863 30.962,31.6583 30.962,32.4863 L30.962,45.0513 C30.962,45.8793 31.634,46.5513 32.462,46.5513 L41.537,46.5513 C42.365,46.5513 43.037,45.8793 43.037,45.0513 L43.037,32.4863 C43.037,31.6583 42.365,30.9863 41.537,30.9863 L41.537,30.9863 Z" id="Fill-26"></path>
            <path d="M45.6316,23.1024 L42.9776,14.7644 C42.9376,14.6384 42.8486,14.5324 42.7306,14.4714 C42.6126,14.4114 42.4736,14.3994 42.3496,14.4394 L40.5306,15.0184 C40.4036,15.0594 40.2996,15.1474 40.2376,15.2654 C40.1776,15.3834 40.1656,15.5204 40.2056,15.6464 L41.5066,19.7304 L3.4566,0.0554 C3.2146,-0.0696 2.9096,0.0234 2.7826,0.2694 L1.9056,1.9654 C1.8456,2.0824 1.8336,2.2204 1.8736,2.3464 C1.9136,2.4724 2.0026,2.5784 2.1206,2.6394 L40.1706,22.3134 L36.0866,23.6134 C35.9596,23.6544 35.8556,23.7424 35.7936,23.8604 C35.7336,23.9784 35.7216,24.1154 35.7616,24.2424 L36.3406,26.0604 C36.4076,26.2724 36.6056,26.4084 36.8176,26.4084 C36.8666,26.4084 36.9186,26.4014 36.9686,26.3854 L45.3066,23.7304 C45.5696,23.6464 45.7156,23.3654 45.6316,23.1024" id="Fill-27"></path>
        </g>
    </g>
</svg>