<?xml version="1.0" encoding="UTF-8" standalone="no"?>
<svg width="100px" height="100px" viewBox="0 0 100 100" version="1.1" xmlns="http://www.w3.org/2000/svg" xmlns:xlink="http://www.w3.org/1999/xlink">
    <!-- Generator: Sketch 39.1 (31720) - http://www.bohemiancoding.com/sketch -->
    <title>icon-employment</title>
    <desc>Created with Sketch.</desc>
    <defs></defs>
    <g id="Page-1" stroke="none" stroke-width="1" fill="none" fill-rule="evenodd">
        <rect id="Rectangle-6" x="0" y="0" width="100" height="100"></rect>
        <g transform="translate(32.000000, 23.000000)" fill="#000000">
            <path d="M18.3420327,3.81277397 C14.6420327,3.81277397 11.6216245,6.80318493 11.6216245,10.4664384 C11.6216245,14.1296918 14.6420327,17.1201027 18.3420327,17.1201027 C22.0420327,17.0453425 25.0624408,14.0549315 25.0624408,10.4664384 C25.0624408,6.80318493 22.0420327,3.81277397 18.3420327,3.81277397 M18.4175429,20.7833562 C12.6032571,20.7833562 7.92162449,16.1482192 7.92162449,10.3916781 C7.92162449,4.63513699 12.6032571,0 18.4175429,0 C24.1563184,0 28.9134612,4.63513699 28.9134612,10.3916781 C28.837951,15.9986986 24.1563184,20.6338356 18.4175429,20.7833562" id="Fill-1"></path>
            <path d="M18.3420327,48.6689384 L15.5481551,45.5290068 L18.3420327,35.735411 L20.9848898,45.5290068 L18.3420327,48.6689384 Z M17.5114204,24.2223288 L11.3195837,46.5756507 L18.4175429,54.4254795 L25.137951,46.5756507 L19.3236653,24.2223288 L17.5114204,24.2223288 Z" id="Fill-3"></path>
            <path d="M32.537951,46.7999315 C32.3114204,47.0242123 32.0848898,47.1737329 31.7073388,47.1737329 L21.2114204,47.1737329 L18.1910122,50.762226 L15.1706041,47.1737329 L4.82570612,47.1737329 C4.4481551,47.1737329 4.22162449,47.0989726 4.07060408,46.8746918 C3.76856327,46.5756507 3.69305306,45.9775685 3.84407347,45.304726 L7.61958367,28.7079452 C7.92162449,27.2875 9.43182857,26.0913356 10.9420327,26.0913356 L25.6665224,26.0913356 C27.1012163,26.0913356 28.6869306,27.2875 28.9889714,28.7079452 L32.7644816,45.304726 C32.915502,45.9028082 32.8399918,46.5008904 32.537951,46.7999315 M36.4644816,44.5571233 L32.6889714,27.9603425 C32.0093796,24.820411 28.9134612,22.3533219 25.6665224,22.3533219 L10.9420327,22.3533219 C7.69509388,22.3533219 4.59917551,24.820411 3.91958367,27.9603425 L0.144073469,44.5571233 C-0.233477551,46.3513699 0.144073469,47.9960959 1.12570612,49.2670205 C2.03182857,50.3884247 3.31550204,50.9865068 4.82570612,50.9865068 L31.6318286,50.9865068 C33.1420327,50.9865068 34.5012163,50.3884247 35.4073388,49.2670205 C36.4644816,47.9213356 36.8420327,46.2766096 36.4644816,44.5571233" id="Fill-5"></path>
        </g>
    </g>
</svg>