<?xml version="1.0" encoding="UTF-8" standalone="no"?>
<svg width="100px" height="100px" viewBox="0 0 100 100" version="1.1" xmlns="http://www.w3.org/2000/svg" xmlns:xlink="http://www.w3.org/1999/xlink">
    <!-- Generator: Sketch 39.1 (31720) - http://www.bohemiancoding.com/sketch -->
    <title>icon-smallbusiness</title>
    <desc>Created with Sketch.</desc>
    <defs></defs>
    <g id="Page-1" stroke="none" stroke-width="1" fill="none" fill-rule="evenodd">
        <g id="Group-16" transform="translate(22.000000, 31.000000)" fill="#000000">
            <path d="M10.959,29.3983 L15.225,29.3983 L15.225,20.6143 L10.959,20.6143 L10.959,29.3983 Z M16.846,17.3733 L9.338,17.3733 C8.444,17.3733 7.717,18.1003 7.717,18.9943 L7.717,31.0203 C7.717,31.9133 8.444,32.6403 9.338,32.6403 L16.846,32.6403 C17.74,32.6403 18.468,31.9133 18.468,31.0203 L18.468,18.9943 C18.468,18.1003 17.74,17.3733 16.846,17.3733 L16.846,17.3733 Z" id="Fill-7"></path>
            <path d="M52.7068,9.5834 L52.7068,10.6584 L3.4508,10.6584 L3.4508,9.5834 L9.9848,3.4614 L46.1728,3.4614 L52.7068,9.5834 Z M23.3518,23.5334 L24.6178,20.6144 L31.6008,20.6144 L32.8668,23.5334 L32.8668,23.6614 L23.3518,23.6614 L23.3518,23.5334 Z M33.4848,26.9024 L34.4278,26.9024 C35.3208,26.9024 36.0488,26.1754 36.0488,25.2814 L36.0488,23.2064 C36.0488,22.9934 35.9908,22.8334 35.9408,22.6934 L34.0618,18.3484 C33.8088,17.7554 33.2318,17.3734 32.5958,17.3734 L23.5008,17.3734 C22.8638,17.3734 22.2878,17.7554 22.0338,18.3464 L20.1898,22.5924 L20.1548,22.6934 C20.1048,22.8334 20.0478,22.9934 20.0478,23.2064 L20.0478,25.2814 C20.0478,26.1754 20.7748,26.9024 21.6688,26.9024 L22.6118,26.9024 L22.6118,36.8464 L6.3198,36.8464 L6.3198,13.8994 L49.8378,13.8994 L49.8378,36.8464 L33.4848,36.8464 L33.4848,26.9024 Z M25.9148,36.8464 L30.3038,36.8464 L30.3038,26.9024 L25.9148,26.9024 L25.9148,36.8464 Z M47.8528,0.6664 C47.5218,0.4174 47.1338,0.2814 46.7588,0.2814 L9.3378,0.2814 C8.9628,0.2814 8.5738,0.4174 8.2098,0.6944 L0.7348,7.6864 C0.3478,7.9774 0.2088,8.5004 0.2088,8.8604 L0.2088,12.2794 C0.2088,13.1724 0.9358,13.8994 1.8298,13.8994 L3.0778,13.8994 L3.0778,38.4674 C3.0778,39.3604 3.8058,40.0874 4.6988,40.0874 L51.5198,40.0874 C52.4138,40.0874 53.1418,39.3604 53.1418,38.4674 L53.1418,13.8994 L54.3278,13.8994 C55.2218,13.8994 55.9488,13.1724 55.9488,12.2794 L55.9488,8.8604 C55.9488,8.5004 55.8108,7.9774 55.4548,7.7124 L47.8528,0.6664 Z" id="Fill-9"></path>
            <path d="M40.87,29.3983 L45.136,29.3983 L45.136,20.6143 L40.87,20.6143 L40.87,29.3983 Z M46.759,17.3733 L39.25,17.3733 C38.356,17.3733 37.629,18.1003 37.629,18.9943 L37.629,31.0203 C37.629,31.9133 38.356,32.6403 39.25,32.6403 L46.759,32.6403 C47.652,32.6403 48.38,31.9133 48.38,31.0203 L48.38,18.9943 C48.38,18.1003 47.652,17.3733 46.759,17.3733 L46.759,17.3733 Z" id="Fill-10"></path>
        </g>
    </g>
</svg>