<?xml version="1.0" encoding="UTF-8"?>
<svg width="100px" height="100px" viewBox="0 0 100 100" version="1.1" xmlns="http://www.w3.org/2000/svg" xmlns:xlink="http://www.w3.org/1999/xlink">
    <!-- Generator: Sketch 43.1 (39012) - http://www.bohemiancoding.com/sketch -->
    <title>icon-elderlaw</title>
    <desc>Created with Sketch.</desc>
    <defs>
        <polygon id="path-1" points="0.114445665 0.559 14.5704343 0.559 14.5704343 14.9925861 0.114445665 14.9925861"></polygon>
        <polygon id="path-3" points="28.548 0.680131535 28.548 49 0.000301436864 49 0.000301436864 0.680131535"></polygon>
    </defs>
    <g id="Page-1" stroke="none" stroke-width="1" fill="none" fill-rule="evenodd">
        <g id="icon-elderlaw">
            <g id="Group-6" fill-rule="nonzero" fill-opacity="0.01" fill="#FFFFFF">
                <g id="Group-3">
                    <g id="Group-5">
                        <g id="Group-4">
                            <g id="Group-2">
                                <g id="Group">
                                    <rect id="Rectangle" style="mix-blend-mode: overlay;" x="0" y="0" width="100" height="100"></rect>
                                </g>
                            </g>
                        </g>
                    </g>
                </g>
            </g>
            <g id="Page-1" transform="translate(39.000000, 13.000000)">
                <g id="Group-3" transform="translate(8.000000, 0.441300)">
                    <g id="Fill-1-Clipped">
                        <mask id="mask-2" fill="white">
                            <use xlink:href="#path-1"></use>
                        </mask>
                        <g id="path-1"></g>
                        <path d="M9.6882,14.6224 C13.3142,13.4584 15.4182,9.2994 14.2442,5.6174 C13.0012,1.7214 9.0122,-0.3236 5.0912,0.9234 C1.2622,2.1424 -0.7598,6.1204 0.4772,10.0034 C1.6972,13.8354 5.7722,15.8794 9.6882,14.6224" id="Fill-1" fill="#333332" fill-rule="nonzero" mask="url(#mask-2)"></path>
                    </g>
                </g>
                <g id="Group-6" transform="translate(0.000000, 15.441300)">
                    <g id="Fill-4-Clipped">
                        <mask id="mask-4" fill="white">
                            <use xlink:href="#path-3"></use>
                        </mask>
                        <g id="path-3"></g>
                        <path d="M26.5964,16.9637 C26.4894,16.9127 26.3844,16.8507 26.2804,16.7847 C26.2594,16.5837 26.2194,16.3817 26.1554,16.1827 C25.7784,14.9887 24.7924,14.3507 23.4964,14.2577 C22.2344,14.1667 20.9294,14.0917 19.7364,13.7127 C17.9124,13.1307 16.3054,12.0587 15.0674,10.5997 C14.0664,9.4207 12.9934,8.0327 12.7524,6.4077 C12.5534,5.0637 13.5414,3.7937 12.7424,2.5337 C11.3004,0.2557 7.8774,0.0337 6.0864,2.1107 C-0.2156,9.4177 -1.4046,19.4377 1.5114,28.5477 C1.8574,29.6297 1.9984,30.5847 2.6034,31.5237 C2.9944,32.3877 3.4594,33.2247 4.0134,34.0297 C4.2314,34.3457 4.2784,34.8267 4.2854,35.2337 C4.3044,36.3667 4.3044,37.5027 4.3084,38.6367 C4.3134,40.0817 4.3204,41.5277 4.3744,42.9697 C4.4554,45.1067 5.0384,48.3417 7.5374,48.9007 C12.9054,50.0997 12.3444,40.1387 12.3764,37.3227 C12.3854,36.5777 12.3964,35.8317 12.4144,35.0887 C12.4254,34.6827 12.4624,34.2017 12.6794,33.8887 C14.6084,31.1147 15.2084,27.8057 15.0274,24.4807 C14.9154,22.4157 14.6314,19.9647 13.7684,17.9567 C13.6714,17.7307 13.9394,17.5207 14.1354,17.6707 C15.8934,19.0237 17.6214,19.5437 19.6584,19.7277 C20.7874,19.8297 22.0114,19.8287 23.3884,19.8107 C23.9724,19.8017 24.6194,19.5907 25.1184,19.2817 C25.4224,19.0947 25.6674,18.8537 25.8554,18.5787 C26.0924,18.5487 26.2774,18.7427 26.4604,19.0647 C26.8384,19.7277 26.5994,20.5147 26.2344,21.1267 C25.9074,21.6737 25.1854,22.1017 25.1854,22.7877 L25.1854,44.0667 C25.1854,44.6817 25.6844,45.1797 26.2994,45.1797 C26.9144,45.1797 27.4124,44.6817 27.4124,44.0667 C27.4124,44.0667 27.4384,33.6027 27.4154,28.7477 C27.4014,26.0747 27.4674,23.4407 28.3424,20.8547 C28.9454,19.0717 28.1834,17.7297 26.5964,16.9637" id="Fill-4" fill="#333332" fill-rule="nonzero" mask="url(#mask-4)"></path>
                    </g>
                </g>
            </g>
        </g>
    </g>
</svg>