<?xml version="1.0" encoding="UTF-8" standalone="no"?>
<svg width="100px" height="100px" viewBox="0 0 100 100" version="1.1" xmlns="http://www.w3.org/2000/svg" xmlns:xlink="http://www.w3.org/1999/xlink">
    <!-- Generator: Sketch 39.1 (31720) - http://www.bohemiancoding.com/sketch -->
    <title>icon-state</title>
    <desc>Created with Sketch.</desc>
    <defs></defs>
    <g id="Page-1" stroke="none" stroke-width="1" fill="none" fill-rule="evenodd">
        <rect id="Rectangle-6" x="0" y="0" width="100" height="100"></rect>
        <path d="M41.2152044,64.3591138 L50.1146461,64.3591138 L59.0133805,64.3591138 C60.476816,64.3591138 61.8221298,65.0678438 61.8412273,66.5843279 L50.1146461,66.5843279 L38.3873576,66.5843279 C38.4071624,65.0678438 39.7524762,64.3591138 41.2152044,64.3591138 L41.2152044,64.3591138 Z M60.0022074,52.1303387 L71.4720331,52.1303387 C70.6416449,54.0011878 68.5062598,55.4582575 65.7378276,55.4582575 C62.9884928,55.4582575 60.8325956,54.0011878 60.0022074,52.1303387 L60.0022074,52.1303387 Z M28.777064,52.1303387 L40.2270848,52.1303387 C39.3966966,54.0011878 37.2407994,55.4582575 34.492172,55.4582575 C31.7230324,55.4582575 29.5876474,54.0011878 28.777064,52.1303387 L28.777064,52.1303387 Z M65.7180227,38.1290314 L70.9585221,48.8017127 L60.4973281,48.8017127 L65.7180227,38.1290314 Z M34.5112695,38.1290314 L39.7319641,48.8017127 L29.2707701,48.8017127 L34.5112695,38.1290314 Z M50.1146461,31 C49.5410134,31.078512 49.1456241,31.275853 48.7106251,31.7094373 C46.5158256,33.8759442 43.2133702,35.4900378 35.4215844,33.3631406 C34.3931478,33.0872876 33.2458823,33.0872876 32.7323714,34.1708947 L25.1775362,49.5302475 C25.0594145,49.7862957 25,50.1406607 25,50.4561233 C25.0396097,55.2022093 29.3903064,58.805981 34.492172,58.805981 C39.5544279,58.805981 43.8853198,55.2227215 43.984344,50.5353426 C43.984344,50.2007825 43.9645391,49.8457102 43.8259053,49.5309548 L37.7946274,37.2830822 C42.5011037,38.0116171 45.922388,37.3021798 48.41426,35.9830366 L48.41426,61.0120976 L41.2152044,61.0120976 C39.6329399,61.0120976 38.150407,61.5249012 37.0229463,62.41046 C35.8756808,63.2967262 35.0452926,64.655479 35.0452926,66.1917679 L35.0452926,68.2401531 C35.0452926,69.1264193 35.8360712,69.9136613 36.7258739,69.9136613 L50.1146461,69.9136613 L63.502711,69.9136613 C64.3932211,69.9136613 65.1839996,69.1264193 65.1839996,68.2401531 L65.1839996,66.1917679 C65.1839996,64.655479 64.3529041,63.2967262 63.2063459,62.41046 C62.0788852,61.5249012 60.5963523,61.0120976 59.0133805,61.0120976 L51.8150322,61.0120976 L51.8150322,35.9823293 C54.3069042,37.3014724 57.7274812,38.0109097 62.4346649,37.2823749 L56.4033869,49.5302475 C56.2654604,49.8450029 56.2449482,50.2000752 56.2449482,50.5346353 C56.3439724,55.2220141 60.6748643,58.8052737 65.7378276,58.8052737 C70.8396932,58.8052737 75.1903899,55.201502 75.2299995,50.455416 C75.2299995,50.1406607 75.1705851,49.7862957 75.0517561,49.5295402 L67.4976281,34.1694801 C66.9827026,33.0865803 65.8361444,33.0865803 64.8077079,33.361726 C57.015922,35.4886232 53.7134666,33.8745296 51.5186671,31.7080227 C51.0836681,31.275853 50.6882789,31.078512 50.1146461,31 L50.1146461,31 Z" fill="#000000"></path>
    </g>
</svg>