<?xml version="1.0" encoding="UTF-8"?>
<svg width="100px" height="100px" viewBox="0 0 100 100" version="1.1" xmlns="http://www.w3.org/2000/svg" xmlns:xlink="http://www.w3.org/1999/xlink">
    <!-- Generator: Sketch 43.1 (39012) - http://www.bohemiancoding.com/sketch -->
    <title>Group 3</title>
    <desc>Created with Sketch.</desc>
    <defs></defs>
    <g id="Page-1" stroke="none" stroke-width="1" fill="none" fill-rule="evenodd">
        <g id="Group-3">
            <g id="Group-2">
                <g id="Group">
                    <rect id="Rectangle" fill-opacity="0.01" fill="#D8D8D8" style="mix-blend-mode: overlay;" x="0" y="0" width="100" height="100"></rect>
                    <g id="icon-estateplanning" transform="translate(29.000000, 26.000000)" stroke-width="4" stroke="#282D33">
                        <g id="Page-1">
                            <path d="M45.8351579,-5.26315789e-05 C47.9183158,-5.26315789e-05 49.6062105,1.68731579 49.6062105,3.771 L49.6062105,7.87257895 L45.2214737,7.87257895" id="Stroke-1"></path>
                            <path d="M6.96384211,41.4961579 L6.96384211,3.77089474 C6.96384211,1.83563158 8.41910526,0.244052632 10.2954211,0.0272105263 C11.3212105,0.0272105263 43.7201579,0.0345789474 45.397,0.0272105263 C43.5212105,0.244052632 42.0633158,1.83563158 42.0633158,3.77089474 L42.0633158,45.9361579 L42.0522632,45.9361579 L42.0633158,46.5666842 C42.0633158,48.5014211 40.5959474,50.093 38.7201579,50.3098421 C37.6933158,50.3098421 5.29331579,50.303 3.61647368,50.3098421" id="Stroke-3"></path>
                            <path d="M35.1011579,44.6715263 L35.1011579,46.5667895 C35.1011579,48.501 36.558,50.0931053 38.4343158,50.3099474 C36.7585263,50.3031053 4.35852632,50.3099474 3.33273684,50.3099474 C1.45589474,50.0931053 0.000105263158,48.501 0.000105263158,46.5667895 L0.000105263158,44.6715263 L35.1011579,44.6715263 Z" id="Stroke-5"></path>
                            <path d="M42.0635789,3.77105263 C42.0635789,1.68736842 43.7509474,0 45.8351579,0 C47.9183158,0 49.6062105,1.68736842 49.6062105,3.77105263 L49.6062105,8.42263158" id="Stroke-7"></path>
                            <path d="M35.1011579,43.5140526 L35.1011579,46.5666842 C35.1011579,48.5014211 36.7874737,50.3098421 38.6516842,50.3098421" id="Stroke-9"></path>
                            <polyline id="Stroke-11" points="34.3752105 34.3040526 34.3752105 40.0293158 31.7183684 38.1956316 29.0620526 40.0293158 29.0620526 34.3040526"></polyline>
                            <path d="M35.3926316,31.7845263 C35.3926316,33.8134737 33.7478947,35.4582105 31.7194737,35.4582105 C29.6905263,35.4582105 28.0447368,33.8134737 28.0447368,31.7845263 C28.0447368,29.7561053 29.6905263,28.1124211 31.7194737,28.1124211 C33.7478947,28.1124211 35.3926316,29.7561053 35.3926316,31.7845263 Z" id="Stroke-13"></path>
                            <path d="M31.7186842,30.8454737 L31.7186842,32.9507368" id="Stroke-15"></path>
                            <path d="M16.9756842,7.63515789 L30.5393684,7.63515789" id="Stroke-17"></path>
                            <path d="M12.3349474,12.9250526 L35.1796842,12.9250526" id="Stroke-19"></path>
                            <path d="M12.3349474,18.1306316 L35.1796842,18.1306316" id="Stroke-21"></path>
                            <path d="M12.3349474,23.3372632 L35.1796842,23.3372632" id="Stroke-23"></path>
                            <path d="M12.3349474,28.5428421 L25.9144211,28.5428421" id="Stroke-25"></path>
                            <path d="M12.3349474,33.7484211 L21.3533684,33.7484211" id="Stroke-27"></path>
                        </g>
                    </g>
                </g>
            </g>
        </g>
    </g>
</svg>