<?xml version="1.0" encoding="UTF-8" standalone="no"?>
<svg width="100px" height="100px" viewBox="0 0 100 100" version="1.1" xmlns="http://www.w3.org/2000/svg" xmlns:xlink="http://www.w3.org/1999/xlink">
    <!-- Generator: Sketch 39.1 (31720) - http://www.bohemiancoding.com/sketch -->
    <title>icon-accident</title>
    <desc>Created with Sketch.</desc>
    <defs>
        <polygon id="path-1" points="37.7250588 31.0805219 37.7250588 0.221709834 0.000149019608 0.221709834 0.000149019608 31.0805219"></polygon>
        <polygon id="path-3" points="25.4818314 0.592015579 0.298262745 0.592015579 0.298262745 25.6044518 25.4818314 25.6044518 25.4818314 0.592015579"></polygon>
    </defs>
    <g id="Page-1" stroke="none" stroke-width="1" fill="none" fill-rule="evenodd">
        <rect id="Rectangle-6" x="0" y="0" width="100" height="100"></rect>
        <g transform="translate(31.000000, 21.000000)">
            <path d="M14.0091843,5.21121714 L20.1562431,7.95150925 C20.1636941,7.95520935 20.1718902,7.95890944 20.1800863,7.96260954 L24.4092627,6.83333982 C22.7514196,5.20529698 20.5317725,4.28175268 18.0960471,4.218111 C16.6662039,4.218111 15.2654196,4.55925998 14.0091843,5.21121714 L14.0091843,5.21121714 Z M20.0072235,8.77441091 L19.8552235,8.62418695 C19.8082824,8.60272639 19.7516549,8.57534567 19.6927922,8.53020448 L12.3997725,5.31037975 L12.9891451,4.94111003 C14.515851,3.98352483 16.2847137,3.47809153 18.1057333,3.47809153 C20.9728706,3.5528335 23.5561255,4.7272444 25.3890667,6.78523856 L25.786949,7.23221032 L20.0072235,8.77441091 Z" id="Fill-1" fill="#000000"></path>
            <path d="M6.28274118,54.835147 L26.6708588,54.835147 L26.466702,50.2470263 L23.2501137,50.2470263 L23.4639569,51.3622356 C23.5578392,51.8269679 23.4661922,52.2265784 23.1726235,52.6150886 C22.8805451,53.0021188 22.4685059,53.2071042 21.9797216,53.2071042 L6.38556471,53.2071042 L6.28274118,54.835147 Z M27.4941922,55.5751665 L5.48995686,55.5751665 L5.68517255,52.4670847 L21.9797216,52.4670847 C22.2345451,52.4670847 22.4238,52.3731022 22.5758,52.1710769 C22.7412118,51.9520312 22.7851725,51.7655463 22.7322706,51.5043194 L22.3492902,49.5070068 L27.1797608,49.5070068 L27.4159569,54.8203466 C27.4874863,54.986111 27.4941922,55.100814 27.4941922,55.2051568 L27.4941922,55.5751665 Z" id="Fill-3" fill="#000000"></path>
            <path d="M10.9956353,7.77960273 C10.2855569,8.71424732 9.75132157,9.76285492 9.45179216,10.8025823 L14.7419882,9.3898851 L10.9956353,7.77960273 Z M8.45783137,11.8341694 L8.57555686,11.249554 C8.86241961,9.82501655 9.57696863,8.34941772 10.5873216,7.09508471 L10.7654,6.87455891 L16.9988902,9.55416943 L8.45783137,11.8341694 Z" id="Fill-5" fill="#000000"></path>
            <path d="M8.05421176,50.1731723 L20.1039373,50.1731723 L15.7928,30.1186446 L12.0777412,30.1186446 L8.05421176,50.1731723 Z M21.0256235,50.9131918 L7.14593725,50.9131918 L11.4667608,29.3786251 L16.3955843,29.3786251 L21.0256235,50.9131918 Z" id="Fill-7" fill="#000000"></path>
            <path d="M3.06771765,48.3231237 L4.99230588,48.3231237 C5.08022745,48.3231237 5.16069804,48.3320039 5.23446275,48.3453242 L8.94728627,30.0513028 C5.87077647,30.1896865 3.5021098,32.5096475 3.5021098,35.4467848 L3.06771765,48.3231237 Z M5.7828549,49.3894917 L5.34622745,49.171186 C5.20763922,49.1023642 5.12269804,49.0631431 4.99230588,49.0631431 L2.29728627,49.0631431 L2.75701176,35.4342045 C2.75701176,32.0019942 5.60403137,29.3046232 9.23936471,29.3046232 L9.3936,29.3046232 L9.4681098,29.3786251 L9.84363922,29.3786251 L5.7828549,49.3894917 Z" id="Fill-9" fill="#000000"></path>
            <path d="M9.19763922,14.4838832 C9.77061961,18.9047595 13.5452863,22.2008062 18.1060314,22.2008062 C23.0773255,22.2008062 27.1217176,18.1839805 27.1217176,13.2465706 C27.1217176,12.0166582 26.9272471,10.9221694 26.5301098,9.91278286 L9.19763922,14.4838832 Z M18.1060314,22.9408257 C13.0527765,22.9408257 8.88916863,19.2015073 8.42124706,14.2426368 L8.39144314,13.9310886 L26.9622667,9.03289971 L27.0904235,9.32372736 C27.6127373,10.5092386 27.8668157,11.7924323 27.8668157,13.2465706 C27.8668157,18.5917313 23.4878745,22.9408257 18.1060314,22.9408257 L18.1060314,22.9408257 Z" id="Fill-11" fill="#000000"></path>
            <path d="M29.8777608,54.835147 C32.6107804,54.835147 33.9512118,54.8373671 34.6247804,54.8780682 L33.6047412,36.2066368 C33.6039961,32.9372308 30.9767804,30.1924985 27.8667412,30.1924985 L18.8726627,30.1924985 L21.0841137,39.6647478 L25.9645059,39.6647478 L25.782702,37.8517001 C25.7804667,36.9022551 26.4354078,36.1866563 27.2706627,36.1866563 C28.1893686,36.1866563 28.9098784,36.8371334 28.9098784,37.6666952 L29.1885451,40.4920896 C30.0446627,41.1018656 30.5490941,42.0801714 30.5490941,43.1428393 L30.5490941,46.7696748 C30.5490941,47.5947965 30.2175255,48.3821772 29.5871725,49.056335 L29.8777608,54.8166465 L29.8777608,54.835147 Z M34.6933294,56.1331412 L34.6657608,55.6195677 C33.7880353,55.5877468 31.1369765,55.5751665 29.4314471,55.5751665 L29.058898,55.5751665 L29.058898,55.2051568 C29.058898,55.0712132 29.0924275,54.9705706 29.1155255,54.9039688 L28.8271725,48.7692074 L28.9441529,48.6530243 C29.506702,48.0957897 29.8039961,47.4438325 29.8039961,46.7696748 L29.8039961,43.1428393 C29.8039961,42.2592561 29.3778,41.4829757 28.6349373,41.0130633 L28.4821922,40.9161207 L28.1662706,37.7029562 C28.1647804,37.1856826 27.7043098,36.9266758 27.2706627,36.9266758 C26.7870941,36.9266758 26.5255647,37.3840078 26.5255647,37.8146991 L26.7885843,40.4047673 L20.4917608,40.4047673 L17.9353294,29.4524791 L27.8667412,29.4524791 C31.3806235,29.4524791 34.3490941,32.5361402 34.3490941,36.1866563 L35.3885059,55.1918364 L35.4600353,55.3627809 L34.6933294,56.1331412 Z" id="Fill-13" fill="#000000"></path>
            <path d="M29.4313725,55.2053048 C29.4313725,55.0573009 29.5058824,54.9832989 29.5058824,54.835295 L29.2078431,48.9151392 C29.8039216,48.3231237 30.1764706,47.5831042 30.1764706,46.7690828 L30.1764706,43.1429873 C30.1764706,42.1069601 29.654902,41.2189367 28.8352941,40.7009231 L28.5372549,37.6668432 C28.5372549,37.0008257 27.9411765,36.556814 27.2705882,36.556814 C26.6,36.556814 26.1529412,37.1488296 26.1529412,37.8148471 L26.3764706,40.0349056 L20.7882353,40.0349056 L18.4039216,29.8226368 L27.8666667,29.8226368 C31.145098,29.8226368 33.9764706,32.7087128 33.9764706,36.1868043 L35.0196078,55.2793067 C35.0941176,55.2053048 29.4313725,55.2053048 29.4313725,55.2053048 L29.4313725,55.2053048 Z M27.7921569,46.7690828 C27.7921569,47.2130944 27.2705882,47.5831042 26.7490196,47.5831042 L22.427451,47.5831042 L21.3843137,42.3289659 L26.8235294,42.3289659 C27.2705882,42.3289659 27.8666667,42.6989757 27.8666667,43.1429873 L27.8666667,46.7690828 L27.7921569,46.7690828 Z M5.96078431,55.2053048 L6.10980392,52.8372425 L6.25882353,52.8372425 L22.054902,52.8372425 C22.427451,52.8372425 22.7254902,52.6892386 22.9490196,52.3932308 C23.172549,52.097223 23.2470588,51.8012152 23.172549,51.4312055 L22.8745098,49.8771646 L26.7490196,49.8771646 L26.8980392,49.8771646 L27.1215686,54.909297 C27.1215686,54.9832989 27.1215686,55.0573009 27.1960784,55.1313028 L5.96078431,55.2053048 Z M4.99215686,48.7671353 L2.68235294,48.7671353 L3.12941176,35.5207868 C3.12941176,32.2647011 5.81176471,29.7486349 9.23921569,29.7486349 L9.31372549,29.7486349 L5.43921569,48.8411373 C5.36470588,48.8411373 5.21568627,48.7671353 4.99215686,48.7671353 L4.99215686,48.7671353 Z M16.0941176,29.7486349 L20.5647059,50.4691801 L7.6,50.4691801 L11.772549,29.7486349 L16.0941176,29.7486349 Z M36.4352941,36.0388004 C36.4352941,31.3766777 32.5607843,27.3805725 28.0156863,27.3805725 L9.31372549,27.3805725 C4.54509804,27.3805725 0.894117647,30.932666 0.894117647,35.4467848 L0.37254902,49.8771646 C0.37254902,50.1731723 0.447058824,50.4691801 0.670588235,50.691186 C0.894117647,50.9131918 1.19215686,51.0611957 1.49019608,51.0611957 L3.7254902,51.0611957 L3.50196078,56.241332 C3.50196078,56.5373398 3.57647059,56.9073496 3.8,57.1293554 C4.02352941,57.3513612 4.32156863,57.4993651 4.61960784,57.4993651 L36.2117647,57.4993651 C36.5098039,57.4993651 36.8078431,57.3513612 37.0313725,57.1293554 C37.254902,56.9073496 37.4039216,56.6113418 37.3294118,56.241332 L36.4352941,36.0388004 Z" id="Fill-15" fill="#000000"></path>
            <g id="Group-19" transform="translate(0.000000, 26.788853)">
                <mask id="mask-2" fill="white">
                    <use xlink:href="#path-1"></use>
                </mask>
                <g id="Clip-18"></g>
                <path d="M22.7338353,20.4242415 L26.7491686,20.4242415 C27.1038353,20.4242415 27.4197569,20.176335 27.4197569,19.9802298 L27.4197569,19.6102201 L27.4942667,19.6102201 L27.4942667,16.3541344 C27.4942667,16.1632093 27.1120314,15.9101227 26.8236784,15.9101227 L21.8374824,15.9101227 L22.7338353,20.4242415 Z M26.7491686,21.164261 L22.1213647,21.164261 L20.930698,15.1701032 L26.8236784,15.1701032 C27.4778745,15.1701032 28.2393647,15.6881168 28.2393647,16.3541344 L28.2393647,20.3502395 L28.0881098,20.3502395 C27.8928941,20.8120117 27.3497176,21.164261 26.7491686,21.164261 L26.7491686,21.164261 Z M3.06771765,21.6082726 L4.99230588,21.6082726 C5.04744314,21.6082726 5.0996,21.6112327 5.14728627,21.6164129 L8.85638431,3.34089192 C5.82458039,3.52071665 3.5021098,5.82439727 3.5021098,8.73193379 L3.06771765,21.6082726 Z M5.7441098,22.4222941 L5.43936471,22.4222941 C5.36261961,22.4222941 5.29556078,22.4045336 5.23073725,22.3867731 C5.15920784,22.3682726 5.08469804,22.3482921 4.99230588,22.3482921 L2.29728627,22.3482921 L2.75701176,8.72009348 C2.75701176,5.28788315 5.60403137,2.58977215 9.23936471,2.58977215 L9.76912941,2.58977215 L5.7441098,22.4222941 Z M8.05465882,23.3103174 L20.1043843,23.3103174 L15.7932471,3.32979163 L12.0774431,3.32979163 L8.05465882,23.3103174 Z M21.0253255,24.0503369 L7.14563922,24.0503369 L11.4672078,2.58977215 L16.3952863,2.58977215 L21.0253255,24.0503369 Z M6.46014902,26.4183992 L6.35732549,28.044962 L26.7424627,27.9739202 L26.5412863,23.4583213 L23.324698,23.4583213 L23.5385412,24.5727907 C23.6316784,25.0390029 23.5400314,25.4378734 23.2472078,25.8263836 C22.9543843,26.2134138 22.5423451,26.4183992 22.055051,26.4183992 L6.46014902,26.4183992 Z M5.56454118,28.7879416 L5.75975686,25.6783797 L22.055051,25.6783797 C22.3091294,25.6783797 22.4991294,25.5843973 22.6518745,25.3816319 C22.8157961,25.1633262 22.8597569,24.9761013 22.8076,24.7148744 L22.4238745,22.7183019 L27.2543451,22.7183019 L27.4942667,28.1041636 C27.4935216,28.1086037 27.4935216,28.1115638 27.4927765,28.1137838 L28.0925804,28.7094995 L5.56454118,28.7879416 Z M29.8778353,28.0464421 C32.6108549,28.0464421 33.9512863,28.0486621 34.6248549,28.0886232 L33.6048157,9.41793184 C33.6040706,6.1485258 30.9768549,3.40379357 27.8668157,3.40379357 L18.8727373,3.40379357 L21.0841882,12.8760428 L25.9645804,12.8760428 L25.7827765,11.0629951 C25.7805412,10.1128101 26.4354824,9.39795131 27.2707373,9.39795131 C28.1894431,9.39795131 28.9099529,10.0484284 28.9099529,10.8779903 L29.1886196,13.7033846 C30.0447373,14.3131607 30.5491686,15.2907264 30.5491686,16.3541344 L30.5491686,19.9802298 C30.5491686,20.8060915 30.2176,21.5934722 29.5872471,22.26763 L29.8778353,28.0272016 L29.8778353,28.0464421 Z M34.6934039,29.3444362 L34.6658353,28.8301227 C33.7881098,28.7983019 31.137051,28.7864615 29.4315216,28.7864615 L29.0589725,28.7864615 L29.0589725,28.4164518 C29.0589725,28.2825083 29.092502,28.1811256 29.1148549,28.1152639 L28.8272471,21.9805024 L28.9442275,21.8643194 C29.5067765,21.3063447 29.8040706,20.6551276 29.8040706,19.9802298 L29.8040706,16.3541344 C29.8040706,15.4705511 29.3778745,14.6942707 28.6350118,14.2243583 L28.4822667,14.1274158 L28.1663451,10.9135112 C28.1648549,10.3969776 27.7043843,10.1379708 27.2707373,10.1379708 C26.7864235,10.1379708 26.5256392,10.5953028 26.5256392,11.0259942 L26.7879137,13.6160623 L20.4918353,13.6160623 L17.9354039,2.6637741 L27.8668157,2.6637741 C31.3799529,2.6637741 34.3491686,5.74743525 34.3491686,9.39795131 L35.3878353,28.4031315 L35.4601098,28.5740759 L34.6934039,29.3444362 Z M9.31387451,0.961729309 C4.80156078,0.961729309 1.26681569,4.34287829 1.26681569,8.65793184 L0.744501961,23.1008919 C0.745247059,23.3339981 0.807090196,23.5145628 0.933756863,23.6411061 C1.09916863,23.8046504 1.30705098,23.902333 1.4903451,23.902333 L4.11458039,23.902333 L3.87391373,29.4687595 C3.87465882,29.7225862 3.94693333,29.9638325 4.06391373,30.0792756 C4.22858039,30.2435599 4.43646275,30.3405024 4.61975686,30.3405024 L36.2119137,30.3405024 C36.3952078,30.3405024 36.6023451,30.2435599 36.7677569,30.0792756 C36.9979922,29.8506095 36.9897961,29.6537644 36.9644627,29.525001 L36.0628941,9.24994742 C36.0628941,4.75728919 32.3776392,0.961729309 28.0158353,0.961729309 L9.31387451,0.961729309 Z M36.2119137,31.0805219 L4.61975686,31.0805219 C4.23752157,31.0805219 3.84261961,30.9066173 3.53638431,30.6024693 C3.16905098,30.2368997 3.12956078,29.676705 3.12956078,29.4524791 L3.33669804,24.6423525 L1.4903451,24.6423525 C1.1088549,24.6423525 0.713952941,24.4684479 0.407717647,24.1642999 C0.136501961,23.8956728 0.000149019608,23.5338033 0.000149019608,23.0883116 L0.521717647,8.64461149 C0.521717647,3.92698734 4.38356078,0.221709834 9.31387451,0.221709834 L28.0158353,0.221709834 C32.778502,0.221709834 36.8035216,4.35175852 36.8079922,9.24254722 L37.7021098,29.4369387 C37.7848157,29.829889 37.6469725,30.2524401 37.2945412,30.6024693 C36.9883059,30.9066173 36.594149,31.0805219 36.2119137,31.0805219 L36.2119137,31.0805219 Z" id="Fill-17" fill="#000000" mask="url(#mask-2)"></path>
            </g>
            <path d="M18.1058824,22.570446 C13.2627451,22.570446 9.23921569,18.9443505 8.79215686,14.2082259 L26.7490196,9.47210127 C27.2705882,10.6561324 27.5686275,11.9141655 27.5686275,13.2462006 C27.4941176,18.352335 23.3215686,22.570446 18.1058824,22.570446 M10.8784314,7.25204284 L15.8705882,9.39809932 L8.94117647,11.248148 C9.23921569,9.76810906 9.98431373,8.436074 10.8784314,7.25204284 M18.1058824,3.92195521 C20.8627451,3.92195521 23.3960784,5.10598637 25.1098039,7.030037 L20.1176471,8.36207205 C20.0431373,8.28807011 19.9686275,8.28807011 19.8941176,8.21406816 L13.1882353,5.25399026 C14.6784314,4.43996884 16.3176471,3.92195521 18.1058824,3.92195521 M18.1058824,1.10988121 C11.4,1.10988121 5.88627451,6.51202337 5.88627451,13.2462006 C5.88627451,19.9063759 11.3254902,25.38252 18.1058824,25.38252 C24.8117647,25.38252 30.3254902,19.9803778 30.3254902,13.2462006 C30.3254902,6.58602532 24.8862745,1.10988121 18.1058824,1.10988121" id="Fill-20" fill="#000000"></path>
            <g id="Group-24" transform="translate(5.215686, 0.148152)">
                <mask id="mask-4" fill="white">
                    <use xlink:href="#path-3"></use>
                </mask>
                <g id="Clip-23"></g>
                <path d="M8.83857647,5.08297176 L14.9409294,7.80328335 C14.9483804,7.80698345 14.9558314,7.81068354 14.9640275,7.81438364 L19.1932039,6.68585394 C16.5875961,4.14240701 12.5432039,3.36094645 8.83857647,5.08297176 L8.83857647,5.08297176 Z M14.7919098,8.62692502 L14.6399098,8.47596105 C14.5922235,8.45450049 14.5355961,8.42711977 14.4774784,8.38197858 L7.13528235,5.14069328 L7.79320392,4.78178384 C9.46743922,3.86711977 11.1826549,3.40386758 12.8896745,3.40386758 C15.6890078,3.40386758 18.3430471,4.58197858 20.1730078,6.63701266 L20.5716353,7.08472444 L14.7919098,8.62692502 Z M5.7874,7.56055696 C5.03559608,8.59806426 4.52371373,9.59265044 4.23685098,10.5805764 L9.52630196,9.16787926 L5.7874,7.56055696 Z M3.2421451,11.6121636 L3.35987059,11.0275482 C3.63555686,9.65925219 4.29124314,8.30353651 5.36492941,6.8819591 L5.54077255,6.64811295 L11.7832039,9.33216358 L3.2421451,11.6121636 Z M3.98202745,14.3354352 C4.55426275,18.7570516 8.32967451,22.0523583 12.8896745,22.0523583 C17.8304196,22.0523583 21.9083412,18.0333126 21.9806157,13.0929426 C21.9806157,11.9792132 21.7563412,10.8595638 21.3152431,9.76433496 L3.98202745,14.3354352 Z M12.8896745,22.7923778 C7.83716471,22.7923778 3.67355686,19.0530594 3.2048902,14.0949289 L3.17583137,13.7826407 L21.7466549,8.88519182 L21.8748118,9.17527945 C22.438851,10.4577332 22.7257137,11.7771879 22.7257137,13.0981227 C22.6474784,18.4462434 18.2350078,22.7923778 12.8896745,22.7923778 L12.8896745,22.7923778 Z M12.8896745,1.33181305 C6.3574,1.33181305 1.04336078,6.61037196 1.04336078,13.0981227 C1.04336078,19.5858734 6.3574,24.8644323 12.8896745,24.8644323 C19.4226941,24.8644323 24.7367333,19.5858734 24.7367333,13.0981227 C24.7367333,6.61037196 19.4226941,1.33181305 12.8896745,1.33181305 L12.8896745,1.33181305 Z M12.8896745,25.6044518 C5.94685098,25.6044518 0.298262745,19.9943642 0.298262745,13.0981227 C0.298262745,6.20188121 5.94685098,0.591793574 12.8896745,0.591793574 C19.8332431,0.591793574 25.4818314,6.20188121 25.4818314,13.0981227 C25.4818314,19.9943642 19.8332431,25.6044518 12.8896745,25.6044518 L12.8896745,25.6044518 Z" id="Fill-22" fill="#000000" mask="url(#mask-4)"></path>
            </g>
        </g>
    </g>
</svg>