<?xml version="1.0" encoding="UTF-8"?>
<svg width="100px" height="100px" viewBox="0 0 100 100" version="1.1" xmlns="http://www.w3.org/2000/svg" xmlns:xlink="http://www.w3.org/1999/xlink">
    <!-- Generator: Sketch 43.1 (39012) - http://www.bohemiancoding.com/sketch -->
    <title>icon-litigation</title>
    <desc>Created with Sketch.</desc>
    <defs></defs>
    <g id="Page-1" stroke="none" stroke-width="1" fill="none" fill-rule="evenodd">
        <g id="icon-litigation">
            <g id="Group-8" fill-rule="nonzero" fill-opacity="0.01" fill="#FFFFFF">
                <g id="Group-7">
                    <g id="Group-6">
                        <g id="Group-3">
                            <g id="Group-5">
                                <g id="Group-4">
                                    <g id="Group-2">
                                        <g id="Group">
                                            <rect id="Rectangle" style="mix-blend-mode: overlay;" x="0" y="0" width="100" height="100"></rect>
                                        </g>
                                    </g>
                                </g>
                            </g>
                        </g>
                    </g>
                </g>
            </g>
            <g id="Page-1" transform="translate(24.000000, 22.000000)" stroke="#000000" stroke-width="4">
                <path d="M36.021954,39.8997 C36.0207586,40.5711 35.4792414,41.1165 34.8098161,41.1165 L18.8517931,41.1165 C18.1817701,41.1159 17.6396552,40.5717 17.6396552,39.9003 L17.6396552,36.0471 C17.6396552,35.3751 18.1823678,34.8303 18.8517931,34.8303 L34.8104138,34.8309 C35.4792414,34.8303 36.021954,35.3751 36.0213563,36.0465 L36.021954,39.8997 Z" id="Stroke-1"></path>
                <path d="M36.0214161,19.01394 C36.0220138,19.68654 35.4798989,20.23074 34.8098759,20.23014 L18.8512552,20.22954 C18.1818299,20.23014 17.6397149,19.68594 17.6391172,19.01394 L17.6391172,15.16074 C17.6397149,14.48934 18.1812322,13.94334 18.8518529,13.94394 L34.8092782,13.94394 C35.4793011,13.94394 36.0220138,14.48934 36.0214161,15.16074 L36.0214161,19.01394 Z" id="Stroke-3"></path>
                <path d="M20.3970897,35.14188 L20.3970897,19.91808" id="Stroke-5"></path>
                <path d="M33.265177,35.14248 L33.265177,19.91868" id="Stroke-7"></path>
                <polyline id="Stroke-9" points="0 29.95224 20.3971494 29.95224 20.3971494 25.10844 0.000597701149 25.10964"></polyline>
                <path d="M6.81636322,29.8368 L6.81576552,25.2234" id="Stroke-11"></path>
                <path d="M26.5644092,30.73038 L26.5638115,24.33018" id="Stroke-13"></path>
                <path d="M1.23096552,20.0376 L1.23096552,6.9114 L26.5346437,0.0432 L51.835931,6.9126 L51.835931,29.8122 C51.835931,47.5242 38.3129425,53.5368 28.140069,56.5182 L26.534046,56.9892 L24.9274253,56.5182 C14.7545517,53.5368 1.23096552,47.5242 1.23096552,29.8122" id="Stroke-15"></path>
                <path d="M6.61027586,20.0376 L6.61027586,11.0454 L26.5346437,5.637 L46.4566207,11.046 L46.4566207,29.8122 C46.4566207,40.8252 40.528023,47.262 26.6326667,51.3342 L26.534046,51.3636 L26.436023,51.3348 C12.5388736,47.262 6.61027586,40.8252 6.61027586,29.8122 L6.61027586,24.5346" id="Stroke-17"></path>
            </g>
        </g>
    </g>
</svg>