<?xml version="1.0" encoding="UTF-8"?>
<svg width="100px" height="100px" viewBox="0 0 100 100" version="1.1" xmlns="http://www.w3.org/2000/svg" xmlns:xlink="http://www.w3.org/1999/xlink">
    <!-- Generator: Sketch 43.1 (39012) - http://www.bohemiancoding.com/sketch -->
    <title>icon-arbitration</title>
    <desc>Created with Sketch.</desc>
    <defs></defs>
    <g id="Page-1" stroke="none" stroke-width="1" fill="none" fill-rule="evenodd">
        <g id="icon-arbitration">
            <g id="Group-5" fill-rule="nonzero" fill-opacity="0.01" fill="#FFFFFF">
                <g id="Group-4">
                    <g id="Group-2">
                        <g id="Group">
                            <rect id="Rectangle" style="mix-blend-mode: overlay;" x="0" y="0" width="100" height="100"></rect>
                        </g>
                    </g>
                </g>
            </g>
            <g id="Page-1" transform="translate(20.000000, 17.000000)" stroke="#282D33" stroke-width="4">
                <path d="M0,61.9688323 L66.3232323,61.9688323" id="Stroke-1"></path>
                <path d="M36.9915121,58.8073161 L36.9915121,55.6823806 C36.9915121,54.8193484 37.6912899,54.1195742 38.5528152,54.1195742 L61.1873101,54.1195742 C62.0495121,54.1195742 62.7486131,54.8193484 62.7486131,55.6823806 L62.7486131,58.8073161" id="Stroke-3"></path>
                <path d="M60.9268899,50.2132355 C60.9268899,49.3508806 60.2291424,48.650429 59.3662636,48.650429 L40.3748091,48.650429 C39.5119303,48.650429 38.8128293,49.3508806 38.8128293,50.2132355 L38.8128293,52.5571065 C38.8128293,53.4201387 39.5119303,54.1199129 40.3748091,54.1199129 L59.3662636,54.1199129 C60.2291424,54.1199129 60.9268899,53.4201387 60.9268899,52.5571065 L60.9268899,50.2132355 Z" id="Stroke-5"></path>
                <path d="M60.6922545,20.1527516 C61.226901,20.6892677 61.2282545,21.5590742 60.6922545,22.0955903 L47.9155576,34.8839129 C47.3788808,35.4211065 46.5105879,35.420429 45.9752646,34.8845903 L42.9020626,31.808429 C42.3660626,31.2719129 42.3660626,30.4021065 42.9020626,29.8655903 L55.6794364,17.0765903 C56.2140828,16.5400742 57.0830525,16.5400742 57.6183758,17.0765903 L60.6922545,20.1527516 Z" id="Stroke-7"></path>
                <path d="M44.0341596,3.47854839 C44.5708364,4.01506452 44.5708364,4.88419355 44.0341596,5.42070968 L31.2567859,18.2097097 C30.7207859,18.7462258 29.8524929,18.7462258 29.3164929,18.2103871 L26.2432909,15.1342258 C25.7079677,14.5977097 25.7059374,13.7279032 26.2432909,13.1907097 L39.0193111,0.402387097 C39.5559879,-0.134129032 40.4256343,-0.134129032 40.9609576,0.402387097 L44.0341596,3.47854839 Z" id="Stroke-9"></path>
                <path d="M44.387703,28.8758129 L32.2458141,16.7222323" id="Stroke-11"></path>
                <path d="M54.6906111,18.563729 L42.5487222,6.41014839" id="Stroke-13"></path>
                <polygon id="Stroke-15" points="14.1248182 50.8813742 40.2487273 24.7323097 36.3850606 20.8656 10.2625051 47.0146645"></polygon>
                <polygon id="Stroke-17" points="15.0811586 51.8393129 11.0564212 55.8679258 5.28020909 50.0854742 9.30494646 46.0568613"></polygon>
                <path d="M34.8211182,29.9806161 L31.1415323,26.2974871" id="Stroke-19"></path>
                <path d="M30.9574515,33.8480032 L27.2778657,30.1648742" id="Stroke-21"></path>
                <path d="M45.8066818,20.4113903 L40.7018232,15.3022935" id="Stroke-23"></path>
                <path d="M60.6678232,37.9184806 L66.5895404,37.9184806" id="Stroke-25"></path>
                <path d="M59.7716475,33.4960161 L64.7695768,30.3162097" id="Stroke-27"></path>
                <path d="M59.7716475,42.3402 L64.7695768,45.5200065" id="Stroke-29"></path>
                <path d="M39.9761929,37.9184806 L34.0544758,37.9184806" id="Stroke-31"></path>
                <path d="M40.8723687,42.3402 L35.8737626,45.5200065" id="Stroke-33"></path>
            </g>
        </g>
    </g>
</svg>