<?xml version="1.0" encoding="UTF-8"?>
<svg width="100px" height="100px" viewBox="0 0 100 100" version="1.1" xmlns="http://www.w3.org/2000/svg" xmlns:xlink="http://www.w3.org/1999/xlink">
    <!-- Generator: Sketch 43.1 (39012) - http://www.bohemiancoding.com/sketch -->
    <title>icon-taxlaw</title>
    <desc>Created with Sketch.</desc>
    <defs>
        <polygon id="path-1" points="0 19.4535 0 0.7325 43.0378 0.7325 43.0378 19.4535 -9.21490531e-16 19.4535"></polygon>
        <polygon id="path-3" points="0 61.6131 62.512 61.6131 62.512 0.0001 0 0.0001"></polygon>
        <polygon id="path-5" points="0 61.6131 62.512 61.6131 62.512 0.0001 0 0.0001"></polygon>
        <polygon id="path-7" points="0 61.6131 62.512 61.6131 62.512 0.0001 0 0.0001"></polygon>
        <polygon id="path-9" points="0 61.6131 62.512 61.6131 62.512 0.0001 0 0.0001"></polygon>
        <polygon id="path-11" points="0 61.6131 62.512 61.6131 62.512 0.0001 0 0.0001"></polygon>
        <polygon id="path-13" points="0 61.6131 62.512 61.6131 62.512 0.0001 0 0.0001"></polygon>
        <polygon id="path-15" points="0 61.6131 62.512 61.6131 62.512 0.0001 0 0.0001"></polygon>
        <polygon id="path-17" points="0 61.6131 62.512 61.6131 62.512 0.0001 0 0.0001"></polygon>
    </defs>
    <g id="Page-1" stroke="none" stroke-width="1" fill="none" fill-rule="evenodd">
        <g id="icon-taxlaw">
            <g id="Group" fill-rule="nonzero" fill="#FFFFFF" fill-opacity="0.01">
                <rect id="Rectangle" style="mix-blend-mode: overlay;" x="0" y="0" width="100" height="100"></rect>
            </g>
            <g id="Page-1" transform="translate(15.000000, 20.000000)">
                <g id="Group-3" transform="translate(0.000000, 27.613100)">
                    <g id="Fill-1-Clipped">
                        <mask id="mask-2" fill="white">
                            <use xlink:href="#path-1"></use>
                        </mask>
                        <g id="path-1"></g>
                        <path d="M15.7148,10.0125 C15.7148,13.5195 12.8608,16.3725 9.3548,16.3725 C5.8478,16.3725 2.9938,13.5195 2.9938,10.0125 C2.9938,6.5055 5.8478,3.6525 9.3548,3.6525 C12.8608,3.6525 15.7148,6.5055 15.7148,10.0125 M40.0438,10.0125 C40.0438,13.5195 37.1918,16.3725 33.6848,16.3725 C30.1768,16.3725 27.3238,13.5195 27.3238,10.0125 C27.3238,6.5055 30.1768,3.6525 33.6848,3.6525 C37.1918,3.6525 40.0438,6.5055 40.0438,10.0125 M42.7408,7.6685 L42.7238,7.6185 C42.6308,7.4165 42.5468,7.2075 42.4778,7.0315 L42.3298,6.6465 C42.2288,6.3765 42.1088,6.1015 41.9758,5.8345 C41.9578,5.7965 41.9398,5.7605 41.9218,5.7265 C41.3428,4.5945 40.5478,3.6165 39.5618,2.8245 C39.5318,2.8005 39.5048,2.7785 39.4798,2.7585 C37.8608,1.4865 35.7968,0.7825 33.6688,0.7775 C33.5848,0.7765 33.4938,0.7645 33.4038,0.7425 L33.3618,0.7325 L33.2918,0.7365 C33.2358,0.7385 33.1788,0.7415 33.1198,0.7445 C32.3758,0.7895 31.6418,0.9235 30.9368,1.1415 L30.4278,1.2995 L30.4748,1.3405 C27.9728,2.3325 26.2278,3.9765 25.1488,6.3555 C25.0778,6.5105 25.0098,6.6695 24.9448,6.8305 C23.8148,5.9355 22.6668,5.4825 21.5288,5.4825 L21.5088,5.4825 C20.3698,5.4825 19.2208,5.9375 18.0938,6.8305 C18.0288,6.6695 17.9608,6.5105 17.8908,6.3565 C16.8118,3.9775 15.0668,2.3335 12.5668,1.3415 L12.6138,1.3005 L12.1018,1.1415 C11.3978,0.9235 10.6618,0.7895 9.9178,0.7445 C9.8608,0.7415 9.8048,0.7385 9.7478,0.7365 L9.6768,0.7325 L9.6348,0.7425 C9.5448,0.7645 9.4528,0.7765 9.3708,0.7775 C7.2418,0.7825 5.1778,1.4865 3.5618,2.7575 C3.5338,2.7785 3.5058,2.8005 3.4798,2.8225 C2.4898,3.6165 1.6958,4.5945 1.1188,5.7225 C1.0998,5.7605 1.0798,5.7965 1.0658,5.8295 C0.9308,6.1005 0.8108,6.3765 0.7088,6.6455 L0.5618,7.0305 C0.4918,7.2065 0.4078,7.4155 0.3148,7.6185 L0.2968,7.6685 C0.0998,8.4275 -0.0002,9.2165 -0.0002,10.0125 C-0.0002,10.4275 0.0278,10.8475 0.0828,11.2605 L0.0898,11.3065 C0.1018,11.3595 0.1108,11.4095 0.1168,11.4605 C0.1298,11.5535 0.1438,11.6465 0.1588,11.7395 C0.8908,16.1375 4.8208,19.4535 9.3038,19.4535 C9.9408,19.4535 10.5788,19.3855 11.2028,19.2495 C14.5978,18.5165 17.2278,16.1595 18.2378,12.9465 C18.4888,12.1515 18.6338,11.3155 18.6708,10.4615 C18.6768,10.3445 18.6878,10.2305 18.7038,10.1225 C18.9188,8.6855 20.0768,7.6725 21.5168,7.6585 C22.9618,7.6725 24.1198,8.6855 24.3338,10.1235 C24.3508,10.2305 24.3618,10.3445 24.3668,10.4605 C24.4038,11.3145 24.5498,12.1505 24.7998,12.9465 C25.8108,16.1595 28.4408,18.5165 31.8348,19.2495 C32.4588,19.3845 33.0988,19.4535 33.7358,19.4535 C38.2168,19.4535 42.1488,16.1375 42.8788,11.7395 C42.8948,11.6465 42.9088,11.5545 42.9208,11.4605 C42.9278,11.4095 42.9378,11.3595 42.9478,11.3065 L42.9558,11.2585 C43.0108,10.8465 43.0378,10.4275 43.0378,10.0125 C43.0378,9.2155 42.9388,8.4275 42.7408,7.6685" id="Fill-1" fill="#333332" fill-rule="nonzero" mask="url(#mask-2)"></path>
                    </g>
                </g>
                <g id="Fill-6-Clipped">
                    <mask id="mask-4" fill="white">
                        <use xlink:href="#path-3"></use>
                    </mask>
                    <g id="path-3"></g>
                    <polygon id="Fill-6" fill="#333332" fill-rule="nonzero" mask="url(#mask-4)" points="21.319 24.2461 53.376 24.2461 53.376 21.6171 21.319 21.6171"></polygon>
                </g>
                <g id="Fill-8-Clipped">
                    <mask id="mask-6" fill="white">
                        <use xlink:href="#path-5"></use>
                    </mask>
                    <g id="path-3"></g>
                    <path d="M21.3193,28.7018 L25.9633,28.7018 C25.1853,29.3608 24.5053,30.1178 23.9223,30.9648 C23.1373,30.6848 22.3383,30.5448 21.5293,30.5448 L21.5083,30.5448 C21.4463,30.5448 21.3813,30.5468 21.3193,30.5478 L21.3193,28.7018 Z" id="Fill-8" fill="#333332" fill-rule="nonzero" mask="url(#mask-6)"></path>
                </g>
                <g id="Fill-9-Clipped">
                    <mask id="mask-8" fill="white">
                        <use xlink:href="#path-7"></use>
                    </mask>
                    <g id="path-3"></g>
                    <path d="M53.3759,28.7018 L53.3759,31.3308 L43.7119,31.3308 C43.1009,30.3438 42.3469,29.4628 41.4629,28.7018 L53.3759,28.7018 Z" id="Fill-9" fill="#333332" fill-rule="nonzero" mask="url(#mask-8)"></path>
                </g>
                <g id="Fill-10-Clipped">
                    <mask id="mask-10" fill="white">
                        <use xlink:href="#path-9"></use>
                    </mask>
                    <g id="path-3"></g>
                    <path d="M53.3759,35.7862 L53.3759,38.4152 L45.5629,38.4152 C45.5799,38.1522 45.5889,37.8882 45.5889,37.6252 C45.5889,37.0072 45.5419,36.3922 45.4469,35.7862 L53.3759,35.7862 Z" id="Fill-10" fill="#333332" fill-rule="nonzero" mask="url(#mask-10)"></path>
                </g>
                <g id="Fill-11-Clipped">
                    <mask id="mask-12" fill="white">
                        <use xlink:href="#path-11"></use>
                    </mask>
                    <g id="path-3"></g>
                    <path d="M22.9726,42.8707 C23.4286,43.8297 24.0066,44.7127 24.6906,45.4997 L21.3196,45.4997 L21.3196,42.8707 L22.9726,42.8707 Z" id="Fill-11" fill="#333332" fill-rule="nonzero" mask="url(#mask-12)"></path>
                </g>
                <g id="Fill-12-Clipped">
                    <mask id="mask-14" fill="white">
                        <use xlink:href="#path-13"></use>
                    </mask>
                    <g id="path-3"></g>
                    <path d="M53.3759,42.8707 L53.3759,45.4997 L42.6779,45.4997 C43.3669,44.7077 43.9529,43.8257 44.4119,42.8707 L53.3759,42.8707 Z" id="Fill-12" fill="#333332" fill-rule="nonzero" mask="url(#mask-14)"></path>
                </g>
                <g id="Fill-13-Clipped">
                    <mask id="mask-16" fill="white">
                        <use xlink:href="#path-15"></use>
                    </mask>
                    <g id="path-3"></g>
                    <polygon id="Fill-13" fill="#333332" fill-rule="nonzero" mask="url(#mask-16)" points="21.319 52.5841 53.376 52.5841 53.376 49.9551 21.319 49.9551"></polygon>
                </g>
                <g id="Fill-14-Clipped">
                    <mask id="mask-18" fill="white">
                        <use xlink:href="#path-17"></use>
                    </mask>
                    <g id="path-3"></g>
                    <path d="M50.6357,0.0001 L31.4807,0.0001 C30.2647,0.0001 29.1307,0.4641 28.3027,1.2921 L13.9677,15.3231 C12.9187,16.3571 12.3177,17.7891 12.3177,19.2501 L12.3177,26.1601 C12.4997,26.2051 12.6787,26.2561 12.8577,26.3121 L16.3607,27.3971 L16.3607,19.2501 C16.3607,19.0651 16.4027,18.8791 16.4727,18.7061 L21.9257,18.5381 C22.3037,18.5381 22.6677,18.5101 23.0317,18.4711 C26.2127,18.0941 29.0297,16.0031 30.3237,13.0661 C30.6717,12.2851 30.8627,11.4471 30.9837,10.6121 L30.9837,4.3271 L31.1477,4.1661 C31.2287,4.0841 31.3417,4.0431 31.4807,4.0431 L50.6357,4.0431 C54.9537,4.0431 58.4687,7.5561 58.4687,11.8751 L58.4687,49.7371 C58.4687,54.0571 54.9537,57.5701 50.6357,57.5701 L24.2027,57.5701 C19.8787,57.5701 16.3607,54.0571 16.3607,49.7371 L16.3607,47.3241 C15.1707,48.1821 13.8087,48.8291 12.3177,49.2231 L12.3177,50.2851 C12.3547,50.8621 12.4357,51.4321 12.5547,51.9871 C13.7097,57.3801 18.5077,61.6131 24.2027,61.6131 L50.6357,61.6131 C57.1847,61.6131 62.5117,56.2861 62.5117,49.7371 L62.5117,11.8751 C62.5117,5.3271 57.1847,0.0001 50.6357,0.0001" id="Fill-14" fill="#333332" fill-rule="nonzero" mask="url(#mask-18)"></path>
                </g>
            </g>
        </g>
    </g>
</svg>