<?xml version="1.0" encoding="UTF-8"?>
<svg width="100px" height="100px" viewBox="0 0 100 100" version="1.1" xmlns="http://www.w3.org/2000/svg" xmlns:xlink="http://www.w3.org/1999/xlink">
    <!-- Generator: Sketch 43.1 (39012) - http://www.bohemiancoding.com/sketch -->
    <title>Group 3</title>
    <desc>Created with Sketch.</desc>
    <defs></defs>
    <g id="Page-1" stroke="none" stroke-width="1" fill="none" fill-rule="evenodd">
        <g id="Group-3">
            <g id="Group-2" fill="#FFFFFF">
                <g id="Group">
                    <rect id="Rectangle" x="0" y="0" width="100" height="100"></rect>
                </g>
            </g>
            <g id="Page-1" transform="translate(25.000000, 25.000000)" stroke-width="3" stroke="#282D33">
                <polyline id="Stroke-1" points="31.4069186 7.62535258 28.1551744 14.0844041 21.651686 14.0844041 18.3993605 7.62535258"></polyline>
                <g id="Group-8" transform="translate(0.000000, 0.015414)">
                    <path d="M21.4772093,13.7552165 L18.2673256,38.8997938 C20.0539535,39.8362062 22.2330233,40.724701 24.9027907,41.5306392 C27.4917442,40.7599175 29.6905814,39.9176082 31.5388372,38.9725361 L28.3202326,13.7552165" id="Stroke-2"></path>
                    <path d="M23.3406395,54.6445691 C13.4458721,51.775868 0.290639535,45.9905485 0.290639535,28.9480742 L0.290639535,6.91294021 L24.904593,0.304362887 L49.5156395,6.91409485 L49.5156395,28.9480742 C49.5156395,45.9905485 36.3615698,51.775868 26.4656395,54.6445691 L24.9034302,55.0977649 L23.3406395,54.6445691 Z" id="Stroke-4"></path>
                    <path d="M24.808314,49.6572784 C22.3693605,48.9500619 20.1827326,48.1689485 18.2368023,47.3018144 C14.7902907,45.7649897 12.0984302,43.9562474 10.096686,41.8068866 C6.9652907,38.4445773 5.52343023,34.2468866 5.52343023,28.9482474 L5.52343023,10.8908454 L24.9042442,5.6868866 L44.2827326,10.8914227 L44.2827326,28.9482474 C44.2827326,39.5449485 38.5158721,45.738433 24.999593,49.656701 L24.9036628,49.6849897 L24.808314,49.6572784 Z" id="Stroke-6"></path>
                </g>
            </g>
        </g>
    </g>
</svg>