<?xml version="1.0" encoding="UTF-8"?>
<svg width="100px" height="100px" viewBox="0 0 100 100" version="1.1" xmlns="http://www.w3.org/2000/svg" xmlns:xlink="http://www.w3.org/1999/xlink">
    <!-- Generator: Sketch 43.1 (39012) - http://www.bohemiancoding.com/sketch -->
    <title>icon-hiringlawyer</title>
    <desc>Created with Sketch.</desc>
    <defs></defs>
    <g id="Page-1" stroke="none" stroke-width="1" fill="none" fill-rule="evenodd">
        <g id="icon-hiringlawyer">
            <g id="Group-10" fill-rule="nonzero" fill-opacity="0.01" fill="#FFFFFF">
                <g id="Group-9">
                    <g id="Group-8">
                        <g id="Group-7">
                            <g id="Group-6">
                                <g id="Group-3">
                                    <g id="Group-5">
                                        <g id="Group-4">
                                            <g id="Group-2">
                                                <g id="Group">
                                                    <rect id="Rectangle" style="mix-blend-mode: overlay;" x="0" y="0" width="100" height="100"></rect>
                                                </g>
                                            </g>
                                        </g>
                                    </g>
                                </g>
                            </g>
                        </g>
                    </g>
                </g>
            </g>
            <g id="Page-1" transform="translate(12.000000, 27.000000)" stroke="#000000" stroke-width="2">
                <path d="M15.1936547,23.7778033 C15.6047658,24.34907 16.1240308,24.8513033 16.740065,25.24967 C16.7217231,24.8462367 16.7995179,24.4320367 16.9949538,24.0425367 L17.8506974,22.3306367 C18.4521846,21.12477 19.9163726,20.63837 21.119347,21.2432033 C22.319159,21.8455033 22.805535,23.3091367 22.2040479,24.5112033 L21.3470393,26.22437 C21.1478085,26.6265367 20.8467487,26.9457367 20.4957231,27.1756367 L22.4178256,28.1364033 C22.3880991,27.7203033 22.465894,27.2871033 22.6657573,26.88747 L24.6922188,22.8379367 C25.293706,21.6327033 26.7559966,21.1469367 27.9570735,21.7505033 C29.1587829,22.35027 29.6445265,23.8164367 29.0449368,25.0185033 L27.0191077,29.0674033 C26.8192444,29.4702033 26.521347,29.79067 26.1696889,30.01867 L27.8742188,30.87177 C27.8438598,30.45377 27.9222872,30.0231033 28.1234154,29.6228367 L30.6229709,24.6195033 C31.2231932,23.41807 32.6867487,22.9291367 33.8890906,23.53017 C35.089535,24.1331033 35.5765436,25.5986367 34.9769538,26.8032367 L32.4755009,31.8021367 C32.2756376,32.2043033 31.9790051,32.52477 31.6248171,32.75467 L33.329347,33.6071367 C33.2983556,33.1853367 33.3774154,32.75847 33.5772786,32.35377 L34.4336547,30.64187 C35.0338769,29.4385367 36.4993299,28.95087 37.6997744,29.55317 C38.9040137,30.15547 39.3922872,31.6191033 38.792065,32.8224367 L37.933159,34.53687 C37.738988,34.9257367 37.4537402,35.2354367 37.1216889,35.46217 C37.2488171,35.5090367 37.3784752,35.55527 37.5093983,35.5958033 L40.7337744,37.2076367 C41.9329538,37.81247 43.394612,37.3267033 43.9973641,36.1240033 C44.4312444,35.25697 44.2990564,34.25377 43.7431077,33.5349367 C43.882253,33.34937 44.0100137,33.1505033 44.1295521,32.9440367 L46.1952274,33.9770033 C47.3975692,34.5780367 48.8598598,34.09037 49.4600821,32.8908367 C50.0590393,31.6843367 49.5745607,30.22007 48.3715863,29.6190367 L46.3248855,28.5911367 L46.5373983,28.1693367 L51.3499282,30.5823367 C52.5503726,31.18337 54.0158256,30.6963367 54.6147829,29.4936367 C55.217535,28.2903033 54.7324239,26.82477 53.5288171,26.2218367 L48.6928855,23.79997 C48.7548684,23.6511367 48.8054667,23.50167 48.853535,23.3522033 L55.9278085,26.8976033 C57.1263556,27.5024367 58.5911761,27.0122367 59.1926632,25.8089033 C59.7935179,24.6081033 59.3065094,23.14067 58.106065,22.5396367 L45.8163726,16.3792033 C45.1921162,16.35577 44.5545778,16.2753367 43.9107145,16.1347367 C41.4377231,15.5875367 39.4125265,14.2455033 38.197535,12.56337 L33.3982872,13.0947367 L33.2256205,14.0042033 C32.7582188,16.2918033 30.5287316,17.7687367 28.2435863,17.3032367 L26.8647829,17.0214033 C26.8078598,17.0081033 26.7509368,16.99037 26.6946462,16.9758033 L28.3953812,8.67913667 L34.4570564,7.42767 L37.5441846,6.83233667 L40.491535,7.48657 L39.5946803,4.64797 L39.5257402,4.63910333 L33.4330735,4.02920333 L30.3042017,3.76193667 L20.2756205,7.10467" id="Stroke-1"></path>
                <path d="M56.0403897,6.73714667 L48.4866974,9.25464667 L37.4739795,6.81884667 L28.4617915,8.66438 L28.3953812,8.67894667 L26.6946462,16.9756133 C26.7509368,16.99018 26.8078598,17.0079133 26.8647829,17.0212133 L28.2435863,17.30368 C30.5287316,17.7685467 32.7582188,16.2916133 33.2256205,14.0046467 L33.3982872,13.0945467 L38.1456718,12.59928 C38.1456718,12.59928 39.6085949,14.1642467 40.6351077,14.8045467 C40.639535,14.8102467 40.6483897,14.81468 40.6559795,14.81848 C40.7672957,14.8875133 40.8767145,14.9559133 40.9918256,15.01988 C41.0089026,15.0300133 41.0291419,15.0382467 41.0462188,15.0477467 C41.1512103,15.10918 41.2574667,15.1674467 41.3675179,15.22128 C41.3947145,15.23648 41.424441,15.2485133 41.4516376,15.26498 C41.5503043,15.3112133 41.6527658,15.36378 41.7552274,15.4106467 C41.7963385,15.4296467 41.8368171,15.44548 41.8760308,15.4638467 C41.971535,15.5075467 42.0651419,15.54808 42.1606462,15.58798 C42.2137744,15.60888 42.2669026,15.62788 42.3212957,15.6494133 C42.4073128,15.68108 42.4901675,15.71528 42.5780821,15.7488467 C42.6457573,15.7735467 42.7178598,15.79508 42.785535,15.81788 C42.8608,15.8451133 42.933535,15.87108 43.0081675,15.8926133 C43.0992444,15.9217467 43.1896889,15.9464467 43.2795009,15.9724133 C43.3376889,15.9882467 43.394612,16.0072467 43.454065,16.0237133 C43.6058598,16.06298 43.7576547,16.0997133 43.9107145,16.1345467 C44.0688342,16.1706467 44.2256889,16.19978 44.3850735,16.2270133 C44.4053128,16.2308133 44.4249197,16.2346133 44.4457915,16.2371467 C44.5855692,16.26058 44.7234496,16.2827467 44.8632274,16.30048 C44.8758769,16.3030133 44.8853641,16.3030133 44.8980137,16.3049133 C45.0460137,16.3239133 45.1965436,16.3397467 45.3451761,16.35368 L45.3489709,16.35368 C45.5058256,16.36318 45.6639453,16.37458 45.8157402,16.3796467 L45.8163726,16.3796467 L58.0055009,22.4875133 L61.2899624,21.39438" id="Stroke-3"></path>
                <path d="M37.6997744,29.5532333 C36.4993299,28.9509333 35.0338769,29.4379667 34.4336547,30.6419333 L33.5772786,32.3538333 C32.9770564,33.5584333 33.464065,35.0233333 34.6657744,35.6269 C35.8668513,36.2266667 37.3304068,35.7396333 37.933159,34.5369333 L38.792065,32.8225 C39.3922872,31.6191667 38.9040137,30.1555333 37.6997744,29.5532333 Z" id="Stroke-5"></path>
                <path d="M21.1194103,21.2432033 C19.9164359,20.63837 18.4522479,21.12477 17.8507607,22.3306367 L16.9950171,24.0425367 C16.3916325,25.24587 16.8773761,26.7133033 18.0816154,27.3143367 C19.2839573,27.91537 20.7487778,27.4277033 21.3471026,26.22437 L22.2041111,24.5112033 C22.8055983,23.3091367 22.3185897,21.8455033 21.1194103,21.2432033 Z" id="Stroke-7"></path>
                <path d="M33.8888376,23.5304233 C32.6871282,22.92939 31.2229402,23.41769 30.6227179,24.6197567 L28.1237949,29.6224567 C27.5197778,30.82389 28.0074188,32.2881567 29.2110256,32.8917233 C30.4102051,33.49529 31.8750256,33.0057233 32.4758803,31.80239 L34.9773333,26.80349 C35.5762906,25.59889 35.0892821,24.1327233 33.8888376,23.5304233 Z" id="Stroke-9"></path>
                <path d="M27.9568838,21.7503767 C26.7564393,21.14681 25.2935162,21.6325767 24.6920291,22.83781 L22.6662,26.8873433 C22.0666103,28.0900433 22.5523538,29.5530433 23.7540632,30.1553433 C24.9551402,30.76081 26.4174308,30.2718767 27.0195504,29.0672767 L29.0453795,25.0183767 C29.6443368,23.81631 29.1585932,22.3501433 27.9568838,21.7503767 Z" id="Stroke-11"></path>
                <polygon id="Stroke-13" points="62.4714325 24.8824 73.6055863 21.1742333 67.1555692 1.76953333 56.0207829 5.48276667"></polygon>
                <polygon id="Stroke-15" points="7.51005128 0.16758 0.167606838 22.2576133 13.8658291 26.8220467 21.2070085 4.73391333"></polygon>
                <path d="M12.1492188,21.42877 L9.61930427,20.5839033" id="Stroke-17"></path>
                <path d="M64.1180906,19.87267 L66.2931846,19.1646033" id="Stroke-19"></path>
            </g>
        </g>
    </g>
</svg>