<?xml version="1.0" encoding="UTF-8"?>
<svg width="100px" height="100px" viewBox="0 0 100 100" version="1.1" xmlns="http://www.w3.org/2000/svg" xmlns:xlink="http://www.w3.org/1999/xlink">
    <!-- Generator: Sketch 43.1 (39012) - http://www.bohemiancoding.com/sketch -->
    <title>icon-healthcare</title>
    <desc>Created with Sketch.</desc>
    <defs>
        <polygon id="path-1" points="0.00017002773 0.167 63.2235298 0.167 63.2235298 57.9993 0.00017002773 57.9993"></polygon>
    </defs>
    <g id="Page-1" stroke="none" stroke-width="1" fill="none" fill-rule="evenodd">
        <g id="icon-healthcare">
            <g id="Group-3" fill-rule="nonzero" fill-opacity="0.01" fill="#FFFFFF">
                <g id="Group-5">
                    <g id="Group-4">
                        <g id="Group-2">
                            <g id="Group">
                                <rect id="Rectangle" style="mix-blend-mode: overlay;" x="0" y="0" width="100" height="100"></rect>
                            </g>
                        </g>
                    </g>
                </g>
            </g>
            <g id="Page-1" transform="translate(15.000000, 20.000000)">
                <g id="Group-3" transform="translate(0.000000, 0.833300)">
                    <g id="Fill-1-Clipped">
                        <mask id="mask-2" fill="white">
                            <use xlink:href="#path-1"></use>
                        </mask>
                        <g id="path-1"></g>
                        <path d="M62.7515,36.8043 C61.5745,42.9443 58.2925,48.2423 53.7345,52.0093 C49.1885,55.7763 43.3555,57.9993 37.1065,57.9993 L36.9585,57.9993 C23.2765,57.9203 12.0255,47.3233 11.0665,33.7403 C5.6095,32.4453 4.4035,25.3173 4.3545,25.0003 C4.2855,24.6153 4.3245,24.2093 4.4635,23.8333 C3.1385,19.8993 1.7745,15.7573 0.4105,11.5163 C-0.3115,9.2323 -0.0745,6.7213 1.0725,4.6353 C2.0615,2.8353 3.6235,1.5713 5.4715,1.0863 C5.7685,1.0173 6.0645,0.8983 6.3815,0.7703 C6.9155,0.5623 7.4685,0.3343 8.1015,0.2853 C8.1805,0.2753 8.2495,0.2753 8.3285,0.2753 C8.9715,0.2753 9.5545,0.5123 9.9795,0.9383 C10.4145,1.3723 10.6515,1.9863 10.6425,2.6583 C10.6425,4.1903 9.2285,5.1103 7.8545,5.1103 L7.7555,5.1103 C7.2515,5.0893 6.8755,4.9113 6.5685,4.7743 C6.4105,4.6953 6.2725,4.6353 6.1335,4.6053 C5.7685,4.5163 5.4225,4.8133 5.0565,5.1393 C3.5235,6.5133 3.0295,8.2833 3.6425,10.2413 C5.0265,14.6103 6.5985,18.9303 7.8145,22.2413 L8.3385,22.9933 C8.6745,23.3293 8.8925,23.7543 8.9715,24.2193 L8.9805,24.2483 C9.1295,25.0003 9.3865,25.8303 9.6925,26.5233 C9.7125,26.5723 9.7625,26.6713 9.8015,26.7603 C9.8315,26.8293 9.8715,26.9083 9.9105,26.9883 C10.6515,28.4503 11.5915,29.2213 12.6685,29.2613 L12.7875,29.2613 L12.8265,29.2713 L12.9165,29.2713 C13.5985,29.2713 15.9015,28.9063 16.6525,24.2593 C16.7815,23.5073 17.2355,22.8953 17.8785,22.5583 L18.2645,21.5313 C18.9765,19.6323 19.6875,17.7243 20.3995,15.8063 C20.5875,15.2723 20.8145,14.7193 21.0525,14.1453 C22.0505,11.7133 23.0885,9.2023 22.1395,7.0283 C21.4575,5.4753 20.6865,4.5853 20.0235,4.5853 C19.8065,4.5953 19.5495,4.6953 19.2725,4.7933 C18.8975,4.9423 18.4815,5.1003 17.9875,5.1003 C17.6415,5.1003 17.3145,5.0213 16.9985,4.8633 C15.8025,4.2693 15.5655,3.4083 15.5255,2.9453 C15.4465,2.0753 15.9315,1.2043 16.8505,0.5423 C17.1965,0.2853 17.6025,0.1663 18.0365,0.1663 C18.8975,0.1663 19.6975,0.6313 20.3505,1.0173 C20.4785,1.0863 20.5975,1.1653 20.7065,1.2243 C21.7245,1.7683 22.8905,2.4303 23.9285,3.3303 C25.3625,4.5953 26.0845,6.5733 25.9845,8.9063 C25.9455,9.9533 25.7575,11.0113 25.4415,11.9703 C24.7985,13.8783 24.1265,15.7963 23.4745,17.6453 C22.8715,19.3553 22.2585,21.0663 21.6745,22.7853 C21.5265,23.2213 21.3885,23.6563 21.2495,24.0913 C21.3185,24.3773 21.3285,24.6843 21.2895,24.9913 C20.3505,30.6643 17.3845,32.7213 15.4965,33.4623 C15.4965,34.0363 15.5155,34.5213 15.5655,34.9853 C16.2175,39.6023 18.3235,43.8433 21.6655,47.2143 C24.3935,49.9723 27.8045,51.9503 31.5215,52.9283 C33.3205,53.4123 35.1985,53.6593 37.1065,53.6593 C49.1185,53.6593 58.8865,43.8923 58.8865,31.8813 C58.8865,27.6103 57.5615,23.3993 55.1485,19.8003 C56.4435,19.0383 57.5315,17.9513 58.3135,16.6663 C58.7185,17.2203 59.0935,17.7933 59.4495,18.3763 C61.0905,21.0953 62.2175,24.0613 62.7905,27.1853 C63.3845,30.3683 63.3635,33.6113 62.7515,36.8043" id="Fill-1" fill="#333332" fill-rule="nonzero" mask="url(#mask-2)"></path>
                    </g>
                </g>
                <path d="M50.4253,5.9266 C46.6733,5.9266 43.6313,8.9686 43.6313,12.7206 C43.6313,16.4726 46.6733,19.5136 50.4253,19.5136 C54.1773,19.5136 57.2183,16.4726 57.2183,12.7206 C57.2183,8.9686 54.1773,5.9266 50.4253,5.9266" id="Fill-4" fill="#333332" fill-rule="nonzero"></path>
                <path d="M45.2964,36.2821 L40.1324,36.2821 L40.1324,41.4681 L36.3124,41.4681 L36.3124,36.3451 L31.1474,36.3451 L31.1474,32.5261 L36.2474,32.5261 L36.2474,27.3401 L40.1104,27.3401 L40.1104,32.4941 L45.2964,32.4941 L45.2964,36.2821 Z M50.0244,24.8641 C49.0204,24.5551 44.3044,22.8371 40.2174,21.3221 C39.5774,21.0771 38.9044,20.9591 38.2224,20.9591 C37.5284,20.9591 36.8564,21.0771 36.2164,21.3221 C32.1294,22.8371 27.4134,24.5551 26.4094,24.8641 C25.5674,25.1211 25.0124,25.9101 25.0764,26.7961 C25.0974,27.0731 25.1184,27.3291 25.1404,27.4891 C26.0684,36.4421 30.3794,43.6771 37.6134,48.3821 L37.6134,48.3921 C37.6354,48.4031 37.6784,48.4251 37.7204,48.4571 L38.2224,48.7451 L38.7134,48.4571 C38.7554,48.4251 38.7984,48.4031 38.8194,48.3921 L38.8194,48.3821 C46.0544,43.6771 50.3644,36.4421 51.3044,27.4891 C51.3154,27.3291 51.3354,27.0731 51.3574,26.7961 C51.4214,25.9101 50.8774,25.1211 50.0244,24.8641 L50.0244,24.8641 Z" id="Fill-6" fill="#333332" fill-rule="nonzero"></path>
            </g>
        </g>
    </g>
</svg>