<?xml version="1.0" encoding="UTF-8" standalone="no"?>
<svg width="100px" height="100px" viewBox="0 0 100 100" version="1.1" xmlns="http://www.w3.org/2000/svg" xmlns:xlink="http://www.w3.org/1999/xlink">
    <!-- Generator: Sketch 39.1 (31720) - http://www.bohemiancoding.com/sketch -->
    <title>icon-realestate</title>
    <desc>Created with Sketch.</desc>
    <defs></defs>
    <g id="Page-1" stroke="none" stroke-width="1" fill="none" fill-rule="evenodd">
        <g id="Group-14" transform="translate(22.000000, 29.000000)" fill="#000000">
            <path d="M13.3137,5.954 L13.3137,8.683 L12.6207,9.088 L12.6207,5.954 L13.3137,5.954 Z M41.2107,22.65 L29.7647,22.65 C29.5437,22.65 29.3647,22.829 29.3647,23.05 L29.3647,38.576 L10.3807,38.576 L10.3807,14.363 L27.2757,4.032 L44.2947,14.487 L44.2947,38.701 L41.6107,38.701 L41.6107,23.05 C41.6107,22.829 41.4317,22.65 41.2107,22.65 L41.2107,22.65 Z M32.6527,38.576 L38.3227,38.576 L38.3227,25.938 L32.6527,25.938 L32.6527,38.576 Z M54.6097,16.785 L27.6097,0.112 C27.4817,0.033 27.3197,0.033 27.1917,0.111 L16.6027,6.582 L16.6027,2.941 C16.6027,2.72 16.4227,2.541 16.2027,2.541 L9.7317,2.541 C9.5117,2.541 9.3327,2.72 9.3327,2.941 L9.3327,11.053 L0.1907,16.66 C0.0047,16.774 -0.0553,17.016 0.0557,17.204 L1.2997,19.319 C1.3547,19.412 1.4437,19.478 1.5487,19.504 C1.6527,19.531 1.7637,19.513 1.8547,19.456 L7.0927,16.225 L7.0927,38.452 L1.0217,38.452 C0.8017,38.452 0.6227,38.631 0.6227,38.851 L0.6227,41.34 C0.6227,41.56 0.8017,41.74 1.0217,41.74 L53.7777,41.74 C53.9987,41.74 54.1777,41.56 54.1777,41.34 L54.1777,38.851 C54.1777,38.631 53.9987,38.452 53.7777,38.452 L47.7087,38.452 L47.7087,16.349 L52.9457,19.581 C53.0377,19.638 53.1477,19.655 53.2517,19.629 C53.3567,19.603 53.4457,19.536 53.5007,19.443 L54.7447,17.328 C54.8557,17.141 54.7957,16.899 54.6097,16.785 L54.6097,16.785 Z" id="Fill-21"></path>
            <path d="M21.081,31.1103 L22.272,31.1103 L22.272,25.4403 L21.081,25.4403 L21.081,31.1103 Z M16.602,31.1103 L17.793,31.1103 L17.793,25.4403 L16.602,25.4403 L16.602,31.1103 Z M25.161,22.1513 L13.714,22.1513 C13.493,22.1513 13.314,22.3313 13.314,22.5513 L13.314,33.9993 C13.314,34.2193 13.493,34.3983 13.714,34.3983 L25.161,34.3983 C25.382,34.3983 25.561,34.2193 25.561,33.9993 L25.561,22.5513 C25.561,22.3313 25.382,22.1513 25.161,22.1513 L25.161,22.1513 Z" id="Fill-22"></path>
        </g>
    </g>
</svg>